<?xml version="1.0" encoding="utf-8"?>
<!-- Generator: Adobe Illustrator 18.0.0, SVG Export Plug-In . SVG Version: 6.00 Build 0)  -->
<!DOCTYPE svg PUBLIC "-//W3C//DTD SVG 1.1//EN" "http://www.w3.org/Graphics/SVG/1.1/DTD/svg11.dtd">
<svg version="1.1" id="Layer_1" xmlns="http://www.w3.org/2000/svg" xmlns:xlink="http://www.w3.org/1999/xlink" x="0px" y="0px"
	 viewBox="0 0 1366 768" enable-background="new 0 0 1366 768" xml:space="preserve">
<g id="NorthWestTerritory">
	<g>
		<path fill="none" stroke="#000000" stroke-miterlimit="10" d="M458.2,206.5l-1.5-0.6c-0.1-0.1-0.3-0.1-0.4-0.1h-1.4h-1.7H450h-2.8
			l-4.5,0.2h-2h-3h-4h-3h-3.2l-3.5-0.2h-2.5h-2.2h-3.7h-3h-3.2h-2.8h-3.3h-1.6c-0.5,0-0.9-0.3-1.1-0.7l0,0c-0.2-0.4-0.6-0.7-1.1-0.7
			H398h-2.2h-1c-0.2,0-0.4,0-0.5-0.1l-1-0.5c-0.1,0-0.1-0.1-0.2-0.1l-0.9-0.7c-0.2-0.2-0.5-0.2-0.7-0.2h-2.1h-3.2h-2.7H381h-4.2
			h-2.7l-3.8-0.2l-3-0.2c0,0,0,0-0.1,0h-3.5h-2.5c-0.7,0-1.2,0.5-1.2,1.2v0.2c0,0.2,0,0.4,0.1,0.5l0.7,1.5c0.1,0.2,0.1,0.4,0.1,0.5
			v1.7v1.5c0,0.2,0.1,0.5,0.2,0.7l0.3,0.5c0.1,0.1,0.2,0.2,0.3,0.3l0.8,0.6c0.1,0.1,0.2,0.1,0.3,0.2l0.8,1c0.2,0.2,0.3,0.5,0.3,0.7
			v1.6v1.2v2.2v1.3v1.1c0,0,0,0.1,0,0.1l0.3,3.2c0,0,0,0.1,0,0.1v1.5c0,0.1,0,0.2,0,0.3l0.3,1.5c0.1,0.4,0.4,0.8,0.9,0.9l0,0
			c0.4,0.1,0.7,0.3,0.8,0.7l0.4,0.9c0,0,0,0.1,0,0.1l0.8,1.4c0,0,0,0.1,0.1,0.1l0.3,0.4c0.2,0.3,0.3,0.8,0.1,1.1l-0.5,1.3
			c0,0.1-0.1,0.2-0.1,0.2l-0.3,1.4c0,0.2-0.1,0.4-0.3,0.6l-0.7,0.9c0,0,0,0.1-0.1,0.1l-1.1,1.5c0,0.1-0.1,0.1-0.1,0.2l-0.6,1.3
			c0,0.1-0.1,0.1-0.1,0.2l-1.1,1.5c0,0,0,0,0,0.1l-1.1,1.9c-0.2,0.4-0.6,0.6-1,0.6h-0.5c-0.5,0-1-0.3-1.1-0.8l-1.2-3.2l-0.8-2.7
			l-0.8-2.7l-1.5-1.8l-0.7-1.3v-2.3l-0.3-2.2l-2.3-0.8l-2-1.8l-2.7-1.7l-1.3-2.2l-0.5-2.8l-1.5-1.8l-1.7-1.2l-1.5-0.2l-3-0.5
			l-2.8-1.2l-2-1.7l-1.8-1.8l-1-2l-1-1l-1.5,3l-0.2,2.7l-1.5,1.3l-1.5,2.5l-2.2,0.2L320,219l-2.3,0.3l-2.2-1v-2.8l-1.8,1.8l-0.7,3.3
			v2l-1.3,1.2l-1.5,2.2l-2.3,2.2l-2.7,2.2l-0.8,1.5l-1.5,3.2l-2.8,1.7h-2.3h-1.8h-3l-1.2-0.8l-1.2-1.2v-2v-2.2l1.5-1.8h2l2.5-1.5
			l1.5-1l1.5-1.3l-0.8-1v-1.5l-1.2-1.2l-0.5-1.3l-1.3-1.5l-1-1.5h-2.5h-1.5l-0.5-2h-1l-0.2-1.5h-1.2v-1.7v-2.2l-0.5-2l-0.7-0.8
			l-0.7-1l-1.5-1.3l-1-1l-0.8-1.8l-0.8-2.8v-2.2v-2.2v-2.8l1-1.5l1.7-2.3l1.7-2l2.2-2h2.5h2.5l2.5,1.2h2.7l0.7-1.7l0.2-2.2h-1.7
			l-2.7,0.8h-3.5l-2.7-1.3l-1.3-0.8l-1.3-2.7v-1.5v-3.2l1-2.8l1.2-1.7l1.8-1.3h2.2l2.3,0.8l2.5,1.5l2.3,0.7h1.5v-1.7l-2-2.5l-1-2
			l-1.2-1.8l-1.2-0.8l-1-2.7v-2v-1.3l2.7-1l2.2,1.2l2,0.8l2.5,1.5l1.8-0.2l0.7-1v-2.2v-2.9l2-1.3l1.7-1.2l1.2-1.7l2.2-1l2.2-1l2-1
			h2.2h2.8h1.5h2l2.2,1.8l2.2,1.7l2.5,1.5l2.7,1.5h3.7h2.8l3,0.8l2,1.5l2.8,1.5l3.3,1.2l3.8-1.2l3.3-0.5l3.2-1l3,1.3v2.8l2.3,1.2
			l2-1.7h3.7h5.5h4.3l3.3-2.3l2.3-3l1.5-1.5l2.3-1.3h2.8l1.3,1.5l1.5-1.7l1.8-0.2l1.2,0.5l1.2,1.7v1.3l0.8,1.7l1.5,1.7v1.5l1.8,0.3
			l1.5-1.8l1.7-0.3h1.8l0.8,1l2.2,1.5l1.8,1.5l1.2,1.5l2.2,1.7l1.7,1.7l1.3,1.5l1.5,0.7l2.8,0.7l2.3-0.2l2.5-0.5h1.8l0.8-2v-1.5V159
			l1-0.7l1.2-1.5l1.5-1.3l1.5-1.2l1.7,0.8l0.8,1.7l0.8,0.5l2.3,1.5l2.2,0.5l1.8,0.5l1.3,0.3h1.2h2.2v-1.7v-2.3v-2.5l1-1.8l1.7-0.8h2
			l1,0.8l1.3,2l1,1.3l0.8,1.8l1,1.3l1,0.8l1.2-1.2v-1.8v-5.3v-3.3V145v-2.8l1-1.5l2.2-3l1.8-2.8l2.2-3l1.8-3.2l3.3-2.5h2.7l3-0.7
			h2.3l0.8,1.2l0.7,1.3l-0.7,1.8l-0.2,1.2l-0.8,1.7l-1.5,2.2l-1.5,1.2l-0.8,1.3l-1,2l-0.8,1.2l-0.5,1.8v1.7l0.2,2.2l0.5,1.7v2.3
			l1.2,2.5l0.3,1.2l0.8,2.5l0.8,1.7l1.2,1.5l2.2-1.3l1.8-1l3-1.2l2.5-0.3l2.5-0.2l2.5-0.3l1.7,1.8l1,1.7v2.5l0.8,3v1.7v2v2.7
			l-1.3,0.7l-1.2,2.2l-1.5,1.3l-1.7,1.2l-1.3,2l-1.7,1.2l-1.5,2.1L492,182l-3.8,0.3l-2.3,0.7l-1.5,1.5v2.3v2.8l-1.2,2.7l-1.8,2
			l-2.7,0.5h-2.2l-3.2,1.7l-1,1.5l-2.5,1.8l-1,2l-1,1.2l-1.7,2.7l-1,1.2l-0.3,1.3h-2.2H460L458.2,206.5"/>
	</g>
</g>
<g id="Alberta">
	<path fill="none" stroke="#000000" stroke-miterlimit="10" d="M492.2,260l1,2c0,0-0.2,1.5,0,2c0.2,0.5,0,1.2,0,1.2l0.1,3.2l-1.2,2
		v3l0.3,2.2l-0.3,5.2l-0.2,2.2v3.8l0.2,2.3l0.2,2.2v2.3h-3.3l-1.7-1.5l-0.3-0.8l-0.7-0.8l-2-2.2l-2-0.7L480,287c0,0-0.3-2.8-0.7-3.7
		c-0.3-0.8-0.8-3.2-0.8-3.2v-1l-0.5-1.5l-3.2-2.3c0,0-0.8-0.2-1.5-0.3c-0.7-0.2-0.7-0.2-0.7-0.2h-0.8l-1.2,1l-3.5,0.5l-3.7,0.5
		c0,0-0.8-1.2-1.3-1.2s-2.3-0.5-2.3-0.5l-4.8,0.3c-0.5,0-2.2,0.1-3.7,0.2c-1.6,0.1-3.1,0.3-3.1,0.3s-2.8-0.7-3.3-0.7s-0.7-0.2-1.7,0
		c-1,0.2-2.7-0.2-3.2-0.2s0.2-0.2-2.3,0.2c-2.5,0.3-3.5,0.3-4,0.3s-0.5,0-0.5,0s-0.5,0-1.3,0c-0.8,0-1.5-0.2-3.2-0.2
		c-1.7,0-1.7,0-1.7,0l-3.5-0.2l-8.3,0.5c0,0,0.3,0.2-1.8,0c-2.2-0.2-2.5-1.2-4.2-0.8c-1.7,0.3-3.7,0.2-4.3,0.3
		c-0.7,0.2-9.8,0.7-9.8,0.7s0.3-0.2-1-0.3c-1.3-0.2-2-0.3-2.8-0.3c-0.8,0,1.2,0.2-0.8,0c-2-0.2-4.8-0.5-5.5-0.3
		c-0.7,0.2-1.3,0.2-2,0.2c-0.7,0-0.7-0.3-3.2-0.2s-1.5,0.3-2.5,0.2c-1-0.2-3.2-0.3-3.2-0.3l-2.7,0.7l-1.3-1.7l-1.5-2.7v-3l1.4-2.3
		v-4v-1l-3.4-3c0,0-1.2-0.3-1.7-1.3s-1.2-3.8-1.7-4.3s-1.3-1.7-1.3-2.2s-1.2-4.7-1.2-4.7l2.3-0.2l-0.2-1.6l1.7-2.6l1.5-1.8l0.3-1.3
		l1.3-3l0.3-0.7l0.6-1.3l-1.5-2.5l-0.7-1.5l-1.8-4.3l-0.3-3.3v-3.8v-4l-1.2-1.5l-1.2-0.8l-0.7-2.8l-0.5-3l-0.5-2.7h4.3l5,0.1
		l2.8,0.1l4.5,0.1l5.2-0.3l5.2,0.3h3.7h1l2.7,1.7h1.3h4.5l0.7,1.3h2.3h4.3h3.8h5.2h5.5l3,0.1l5.5,0.1h4h3h3l3,0l3.5-0.1h3.5h2.5h3.3
		l1.7,0.7l1.8,1.7h1.2h3.7v3l-1,1.7l-0.2,1.8l-0.3,2.3l0.3,3v2.3l1.2,3.7l1.7,2.2l1.7,3l1.2,1l0.8,2.2l1,0.3l1.3,0.2l2.3-0.2l2,0.7
		l3,1.8l1,0.7l1.3,1.2l2.2,1.7c0,0,0.3,0,0.8,0s1.3,0,1.3,0l1.5-0.3h2.7c0,0,1.2,1.5,1.2,2s0.8,2.5,0,2.8c-0.8,0.3-0.8,0.3-0.8,0.3
		s-1,1.8-1,2.3s0,0.5,0,0.5l-0.3,2.3c0,0-0.3,0.8,0,1.5c0.3,0.7,1.3,4,1.3,4l0.2,1.7L492.2,260"/>
</g>
<g id="Peru">
	<path fill="none" stroke="#000000" stroke-miterlimit="10" d="M452.3,452.3l1.3-1.5l2-2.3l3-1.5l2-2.8l2.5-0.8l2.8-1l3.8-3.5h1.5
		l1.5,1.5h2.5l3.8,4l4,2l3.3,1.5h3.5h3.3h4.3h5.8l5.3,2l2,1.3l1.8,1.5l1.8,2.8l2.3,3.3l3,2.5l1.8,2.5l1.5,1.3l5.3,4l3.5,1.5l3.8-1.5
		l4.8,1.5l4.3-1.5l1.5,2h1.5v2.5v2.5l-2.3,3.3l-2,3l-3.5,3.5l-3,1.3l-3.8,1.8l-4,0.8l-5.3,0.5h-4H517l-3-1l-1.8-1.8l-1.5-2.3v-1.3
		l-0.5-2v-2.3l-1.8-3.5l-2.5,1.5l-2,2.3l-0.8,1.3l-1.5,2c0,0-2.5,0-3.3-0.5s-2-1.5-2-1.5l-1.5,1.8c0,0,0,1.8,0,3.5s-0.3,4.5-0.3,4.5
		l-1.8,1.5l-3.5,1H487l-2.8-2.3l-2.8-1.3L480,489l-2.3,0.8l-2.3,1.3l-0.3,2.8l0.8,4.5c0,0,0,1.3,0,2.5s0,2.3,0,2.3l-0.3,3l0.5,2.3
		l-3,1h-2l-2.3-0.5l-2.3,0.8l-1.8,1.8l-2,1.8l-2.5,1.8l-1.3,0.8l-2,3.5l-1.3,2.5l-0.3,3l1,2.8l3.5,1.8l2.3,2l0.8,1.3l0.8,2.3
		l2.3,0.8l1.8-1.8l1.8-0.5h2.3l0.8,1.3l0.3,2.5l-1.8,1.3l-1.3,3.3l1,2l1.8,0.8l1.5,0.3l3-0.5l2.8-1l5.5-2l2.3-2l3,0.3l2,1.8l1.5,2
		l3.3,3.5l2.3,2.3l2.5,1l3,1.9l2,1.4l1.5-1.4h2.8l0.5,2.9l2,3.3l2.5,2.5l3,3.8l1,1.5l0.8,1.8c0,0,1,3.5,1.3,4.5s1.5,1.5,1.5,1.5
		l0.5,3.5l1,4l0.5,4.8l0.3,2.3l2.3,1.5l3,0.8l1.8,2.5l1.3,3l-0.3,2.5l3.3,4.8v4.3l-1.5,2l-2.3,1.8l-2,2.8l-4,1.8l-4.3,1.5l-2.8-2.5
		l1.3-2.8l1.5-3.3v-6.5l-4.5-1.3h-4l-3.5-1.5l-1.8-2.8l-2.5-3h-2.8l-2.8-0.5l-3-0.8l-2.5-2.5l-2.8-0.8l-2,0.8v1.8l-1.5,3.3h-3
		l-2.3-1.8v-1.3l-1.3-1.3l-3-4l-4.3-3l-3.8-2.3l-1.3-2l-2.3-3.3l-3.3-4.3l-4-3.3l-4-2.5l-3.5-2l-3-2.8l-2-2l-2.3-2.5l-1.3-1.3
		l-2-2.5l-1.5-2.8L441,546l-2-3.5l-2-3.5l-1.3-4l-2-3.3c0,0-1.3-1.3-2.5-1.5S430,529,430,529l-1-1.3l-1.5-2l-2-2v-4l1.8-2.8v-2.3v-2
		v-4.5v-5v-2.8l2.3-2.5v-2.5l1.5-2l1.3-2l1.3-2.3l3.5-3l2-2.5l2-2l1.3-2.8v-3.8l-0.5-5.8l-0.5,0v-3l3-3l3-1.5l2.3-2.3V456l2.8-3
		v-1.8V452.3z"/>
</g>
<g id="Brazil">
	<path fill="none" stroke="#000000" stroke-miterlimit="10" d="M537.5,606.8v-4.3l-3.3-4.8l0.3-2.5l-1.3-3l-1.8-2.5l-3-0.8l-2.3-1.5
		l-0.3-2.3l-0.5-4.8l-1-4L524,573c0,0-1.3-0.5-1.5-1.5s-1.3-4.5-1.3-4.5l-0.8-1.8l-1-1.5l-3-3.8l-2.5-2.5l-2-3.3l-0.5-2.9h-2.8
		l-1.5,1.4l-2-1.4l-3-1.9l-2.5-1l-2.3-2.3l-3.3-3.5l-1.5-2l-2-1.8l-3-0.3l-2.3,2l-5.5,2l-2.8,1l-3,0.5l-1.5-0.3l-1.8-0.8l-1-2
		l1.3-3.3l1.8-1.3l-0.3-2.5L472,533h-2.3l-1.8,0.5l-1.8,1.8l-2.3-0.8l-0.8-2.3l-0.8-1.3l-2.3-2l-3.5-1.8l-1-2.8l0.3-3l1.3-2.5l2-3.5
		l1.3-0.8l2.5-1.8l2-1.8l1.8-1.8l2.3-0.8l2.3,0.5h2l3-1l-0.5-2.3l0.3-3c0,0,0-1,0-2.3s0-2.5,0-2.5l-0.8-4.5l0.3-2.8l2.3-1.3l2.3-0.8
		l1.5,0.8l2.8,1.3l2.8,2.3h2.5l3.5-1l1.8-1.5c0,0,0.3-2.8,0.3-4.5s0-3.5,0-3.5l1.5-1.8c0,0,1.3,1,2,1.5s3.3,0.5,3.3,0.5l1.5-2
		l0.8-1.3l2-2.3l2.5-1.5l1.8,3.5v2.3l0.5,2v1.3l1.5,2.3l1.8,1.8l3,1h1.8h4l5.3-0.5l4-0.8l3.8-1.8l3-1.3l3.5-3.5l2-3l2.3-3.3v-2.5
		l1,0.5l1.5,4l1.3,2.8l2.3,2.8l2,3.3l1.3,2l2,3.5l2,2.3l1.5,1.5h1.3h3.3h3.5h1.3l1.3,2.8h1.5l1.8,3h4.5h6.3l3.8,1.3l5.3,1.3l3,1.5
		l4,2.3l3.8,3l2.5,4l3,3.3v2.3l1.3,2v3l-1.5,4.8l-1.8,3.3l-2,2l-1.5,2l-2.3,2l-2.3,2l-1.8,2.8l-2,2.3l-1.8,2.3l-1.3,5l0.5,2.8
		l-1,1.5l0.5,1.3l0.3,2.3l-0.8,3.3l-1.5,4l-2,4l-1.8,3.5l-1.5,4.3l-2.3,3.5l-0.3,2.3l-1.8,3.8l-1.5,2.5l-1.4,1.8h-1.4h-3.8h-2h-2
		l-1,1.8h-2.5l-3,3.8l-3.3,2.5l-1.3,3.8l0.3,1.5v2.5l0.3,3l-0.8,3.8l-1.8,3.8l-2.5,3l-2.3,3.3l-1,4.8l-2,3.5l-0.5,2.8l-2,1.8v3
		l-1.5,2l-3.5-2.3v-1.5l-2.3-3.3v-3.8l-3.8-2.3l-1.3-3.8V626l-1.8-2.8l-2.3,0.5l-2-1l2-3l2-2.8l2-1.8l1-2.3l0.5-2.3l0.8-2.5V606.8z"
		/>
</g>
<g id="Argentina">
	<polygon fill="none" stroke="#000000" stroke-miterlimit="10" points="546,644.5 542.5,642.3 542.5,640.8 540.3,637.5 540.3,633.8 
		536.5,631.5 535.3,627.8 535.3,626 533.5,623.3 531.3,623.8 529.3,622.8 531.3,619.8 533.3,617 535.3,615.3 536.3,613 536.8,610.8 
		537.5,608.3 537.5,606.8 536,608.8 533.8,610.5 531.8,613.3 527.8,615 523.5,616.5 520.8,614 522,611.3 523.5,608 523.5,601.5 
		519,600.3 515,600.3 511.5,598.8 509.8,596 507.3,593 504.5,593 501.8,592.5 498.8,591.8 496.3,589.3 493.5,588.5 491.5,589.3 
		491.5,591 490,594.3 487,594.3 484.8,592.5 484.8,591.3 483.5,590 480.5,586 476.3,583 472.5,580.8 471.8,579.7 471.3,578 
		471.5,582.3 471,585.3 471,588.5 471.5,594.3 472,597.5 472.3,602.5 473,608.3 474.3,613.5 474.8,619 472,623.3 471.8,628.3 
		473.8,635.5 474.8,638.5 475.3,642.3 475.3,649 472.8,650.8 471,653.3 469.3,656.3 468,657.8 468,661.8 468,664.5 468,670.5 
		470.8,675 470.8,676.8 472,682 472.5,685.3 473.5,690 476,689.3 477.5,691.5 478.3,695.8 476.3,702 475,705 473.8,708 472.5,710.8 
		470.8,713.8 473,716.5 476.8,718.5 476.8,720 476.8,721.5 476.8,725.5 478.8,729 478.8,731.3 478.8,734.5 480.3,738 481.8,741 
		484,744 486.8,747.3 488.5,749 490.8,750.8 492,753.3 493.5,756.3 495.8,757.8 499.5,759.3 501.5,759.3 504,757.3 506.8,757.3 
		510.3,755.3 512.5,752.5 511.3,749.8 509.3,749.8 507.5,748.3 505.3,746.5 503.5,744.3 501.5,740.8 501.5,737.3 502.8,733.5 
		502.8,729.3 504,726.8 505.3,723 507,720.3 510.3,718 508,716.3 506.5,714 505.3,714 502.8,711.3 502.8,709.3 504.8,705.8 
		507,702.8 507,700.5 508.8,699 509,696 508.8,693.5 508.5,689.5 507,686.5 508.8,685.3 511.8,685.3 515,683 516.5,681.5 
		516.5,677.5 520.8,675.5 523.3,675.5 526.5,674 530.3,670 531.8,670 534.3,666.8 535.3,663.8 534.8,658.8 531.8,654.3 534.3,654.3 
		538.5,654.3 541,652.3 544.3,649.3 546.3,644.8 	"/>
</g>
<g id="Greenland">
	<path fill="none" stroke="#000000" stroke-miterlimit="10" d="M516,147.5v-4v-3l3.3-2.3h1.8v-2l-2.5-1.3v-2.8l2.5-2.8l4.3-1.5v-2.5
		v-2.8l2.5-4.5h2.3h2.5h1.3l2.5-3.8l2-2.3l3.5-1.8l3-2l4-2h4.3h2l1.3,3.3l2.8-3.3l2-1.3l3-2l3.8-1.3l4-3l2.5-1.8l3-2.5l3-2.8l4-2.5
		h3.8h3.5l2.3,1.8h1.8l3.8-0.5h2l3,1.3l2.5,0.5l3.3,0.3l2,0.3l1.5,0.5h1.5l2,0.5l2.8,1.5v1.8l1.5,1.8l-3.8,2.5l-3.3-0.3l-1.3,0.3
		l-1,1.8v1.3l1.5,1.5l3.5-0.8l4.3-1.5l2.8-0.3l2.5-1.5l2-2l3.5-0.5h2.8h1.3l3.5,0.3l1.5,1.5v1.3l-2.8,1.8l-1.8,1.5L635,108l-1,2
		l-1,1.3l-0.8,1.8l-1,2.8l-1.3,2.8v1.8l0.5,3v2.3v2.8l-0.5,2.3v3l1.3,2l0.5,1.8l0.3,1.5l0.3,2.5l-0.3,2.3l-2.3,1.8l-0.5,2.3l-0.5,3
		h-2.5h-1.5l-1.3,2.3l0.8,1.8l1.8,2.8l1.3,2.8l0.8,1.5l0.8,2.3l-1.3,1.8h-2.8h-2.3L621,164l-2.5-0.5l1.5,3.3h2l0.5,1.8l-1.5,3h-3.8
		l-3,1.3h-2.8l-0.8,1.3l-1.8,2l-1.5,1.8l-1.8,2l-1.3,2l-1.3,1.5l-2,2.1h-1.8l-2.3,2.2l-2.5,2L593,191l-2.5,1.5h-1.3l-3.5,1.8
		l-2.5,2.8v3.3l-1.5,2.3c0,0,0.5,1.8-0.5,3s-1,1.3-1,1.3l-1.8,1.5v2l-1.5,1.5l0.3,1.8l1.3,4l-1.3,4l-0.8,3l-1.7,1.7l-2.2,1.5h-2.2
		l-2.2-1.7l-1.5-1.7l-3-2l-2.2-2.2l-1-1.3l-1.7-2.2l-2.5-1.7l-1.3-3.2l-0.2-4.3v-5l-0.3-4.3l-1.3-2.2l-1.7-3.5l0.7-2.5v-3.2l1.2-1.5
		l2.2-1.7l0.8-2.3l-1.2-2l-1.7-1.5l-2.8-2l-0.3-1.3l0.8-1.8l2-1.3l0.2-3.2L552,167l-1-2.2l-0.2-1.8l-0.7-1l-1.2-1.7l-1.7-2.7
		L544,155l-3.2-2.8l-2.2-3l-1.3-1.3l-0.7-1.3l-1.7-1.2l-1.3,1.7l-3,0.7l-4.7-0.2h-2.2l-2.8,0.3L516,147.5z"/>
</g>
<g id="GreatBritain">
	<path fill="none" stroke="#000000" stroke-miterlimit="10" d="M639.8,242.8l3.3-1.5h2l1.8,2.8v2.8l1.3,2.5v1.5l1.3,1.5h2.3l3,2.3
		l1.3,4.8l-1.5,3l-0.3,2l-2,3l-2,1.8l-2.3,2.5v3.5l3.8,2.3l2.5,1.8l1.8,2.5l2.3,2l1.8,1.5l1.3,5v2.3l2.3,2.5l1.8,1.8l1.5,1.9h3
		l2.8,1.3l3,3.3v3.3l-1.3,4.5l-1.5,2l-0.8,1.5c0,0-0.8,2.3-0.3,3s1.8,0,1.8,0v2l-0.3,2l-1.3,2.8l-0.5,1.3h-2.8l-2.8,1.5h-3h-3
		l-0.8,1.8h-1.5l-3.3,1.3h-4l-5.3-1.3l-1,1.3l-3,2.5l-1.3,2.5h-1.5l-1.5-1.8l-3,1.8l-2.5,1.8h-3.5l-1.5-2v-2.8l2.8-2l1.3-1.5l1-1.5
		l2.3-1.8l2.8-2.3l1.5-2.5H635h-1.5h-2.3l-1-3.5l0.3-1.3l1-2l1.3-0.8l1.3-0.5l1.3-0.3l0.8-1.3l-0.5-2.8l-1.5-2l-0.5-1.5h-1.3
		l-1.8,0.8l-2,2.3v2l0.3,2l-0.3,2.5l-0.5,4l-1.8,3.3v2.5l-1.8,3.8v2.3l-2.3,2l-3,0.3l-2,1.3h-3l-2.3,0.5l-6-1l-2.5-0.8l-3-3.3
		l-2-1.3V326l-1.8-1.8v-4.5V317l1.8-3l1.3-0.5l2.5-1.3l3.3-1c0,0,0.3-1,0.5-2.3s0.3-1.3,0.3-1.3l-1-4.8c0,0-0.3-1.3-0.8-2.3
		s-0.8-3.8-0.8-3.8l0.5-1.5l2.3-2l1.5-2l1.8-1.3l2.5-1.4l2.8-2.4l2-2.8l2.5-3.8l2.3-0.3l3.3,0.3l2.8,1.5l3.3,0.8h3.3L632,279l-1.3-1
		l-2-0.8l-2-1.5l1-3.5l-0.3-3.8l-1-4l0.8-2.8l1.3-5.5l1-3.3v-3.5l3-4.3l2-1.9L639.8,242.8z"/>
</g>
<g id="Scandinavia">
	<path fill="none" stroke="#000000" stroke-miterlimit="10" d="M775.5,161.5l-2.8-1.5l-1.3-1.4l-2.3-1.3h-6H760l-3,1.3l-4.3-2.8
		l-2.3,1.3l-1.8,1.6l-5.5,1.4v1.5v3.5v1.5l-1.5,1.5h-3h-2v3.5l-3-2.3l-1.8-1.5l-2.3,0.5l-2.5,1.8l-1.3,1.5v3.3l1.3,2.5l-1.3,1.3
		l-3.8,3l-2.3,2.3v2.8l-1.3,5.3l-2.3,2.5l-1.3,2.5l-3.5,3l-4,2.8l-2.3,1.8l-4.3,2.8l-2.3,2l-2.5,2.8l-1.8,3.8l-1.8,4v4.5l1,3.7
		l1.5,6.1l1,4.8l-0.3,5.3v1.5l2,5.3l3,1.5h1.8h2.8l1.8,1.3h3.5l1.5-3.5l1.5-1.8l1.5,0.8l0.3,3.3l1.8,1.3l0.8,2.3l1.5,2.5l1,1.5l1,2
		l1.3,3.3l2,1.5l2,1.3h2l3.5-2.5l0.3-2l1.5-1v-1.5l2-1.5l1.8-1.3l-1.5-3c0,0,0-2.5,0-3.3s-0.3,1.5,0-0.8s2.5-4.5,2.5-4.5l1.8-2.3
		l2.8-4.5l1.5-3.8l-0.8-3l-0.5-3.5l-1.5-3l-0.5-2.3l2-2l0.8-2.8l1-2l2.8-4l0.5-1.6l1-2.4l2.8,2.4l-1.3,3.6l-0.5,3l-1,2l-0.3,3
		l-0.3,4.4l1.3,4.1l1.3,1.3l3.3,0.3l3.3-0.5l3.5-0.8l3.3-0.5h1.8l3.3-1.5l2.5-2.3l3-2.7v-2.3v-3.5v-3.5v-4.1l5.3-5.6v-2.8V202
		l2.3-0.5l2.3-1.3V198l2-3.5l2-1h1.5l1.8-0.8L791,191l-1.8-1.5l-2.5-2.5l-1.5-2l0.3-1.3l5,1.3h4.5l1.5,0.3l3.8-0.3v-1.8l2.3-1h3.8
		l1.8-1.3l2-4.5v-3.3l-2.5-5.3l-3-2.3l-3-1.5l-4.3-0.3l-3.8-0.8l-2-0.5l-4.3-0.3l-3.8,0.5l-4.8-1L775.5,161.5z"/>
</g>
<g id="WesternEurope">
	<path fill="none" stroke="#000000" stroke-miterlimit="10" d="M683,326.5l-3.3,1.5l-3,1.5H674l-2.8,2.3v1.8v3h-2.8h-5.3h-2.8v2.5
		l-1.8,1.3v3.3l-2.3,1.3H653h-2.5H647l-3.5,2.5h-1.3l-1.8,4.8l1.3,4.5l1.3,1.8l2.5,2.8l2.8,3.3l1.3,2.8l1.8,3.8l-0.3,4v4.8l-2,2
		l-3.5,1.3h-3.8l-1.3,1.3l-2.8-1.3l-1.8-2l-1.3-1.3L632,379l-2.3,2.8l-3.3,2.3l-1.8,1.8l-1.8,3.5v4l1.8,4.3l1.8,2.3h1.5l1.5,3.4
		l0.3,3.3l-0.3,1.8v4l-1.8,2.5l-1.5,4.3l-0.8,5.5l0.8,3l2.3,3.8l1.5,3.5l1.5,1.8h2.8h5.8h2.5l4.8,2.5h4l1.8,1v1.3l2.5,1.5l1.8,1.5
		h2.5h3h3l1.8-1.5l1.3-3.8l3.5-2l3-0.3l1.5-2l0.3-3.3l1.3-1.3l2.5-3l3.5-4.8v-2v-3.8l2.3-2.3c0,0-1.5-2.3-1.8-3.3s0.3-1.8-0.5-3
		s-1.3-3.8-1.3-3.8l2.3-2.5l1.3-2.2c0,0,1.5-1.8,0-2.8s-2.3-3.8-2.3-3.8l-1.3-5l2.5-2.9l1.7,3.9l2.8,2.3l4,0.3c0,0,2.8-1,2.3-2
		s0.1-2.3,0.1-2.3l1.7-2.1h1.5v2.6v3.8v2.8l3.3,1.8l2.3,1.8l2,1.8l1.8,3.2v1.3l3,3.5v4v2.8l-1.3,2l-2.8,0.3c0,0-1,0.3-2.5,0
		s-3-0.3-3-0.3l-1.8,0.8l-3,2.8l1.3,3l2.5,2.8l1.3,0.5l3,0.8l3.8-1.3l6.5-1.3h3.5l3.3-6l2.8-3v-1.3l2-1.3v-1.8l-1.5-1.5l-0.8-2.5
		l-0.5-2.8l2.8,2.3l2,2.5l2.3,0.3l1.3-2.5c0,0-0.3-0.3,0-1.3s0-2.8,0-2.8l0.1-1.8l-2.1-3.8l-1.5-3l-2.3-2l-1-1.3l-3-3.3v-2.6h3.8
		l2.8,2.9l3.4,2.3l1.4,3.8v4.5v2.8l2.3,3.5l1.5,2.8l1.3,2.5v1.3l2.5,3.5v3v4.8v2.5l2,1.3v2.5l2,1.5l4.3,0.8l4.3-0.3l3.8,0.3l2-3.5
		v-3.3l-2.5-1.5l2.5-2.8v-2V417l-3.8-2.8c0,0-1-1.5-1.5-2.5s-1.3-3-1.3-3l-0.3-2.3l2.5,2l2.3-1.3l2-2v-2l1.5-3.8v-2.3l1.5-4.5v-2.3
		l2-3l2-3.5l2.5-2.5l3-4.3l1.8-3.8l1.5-3.3v-3.5l1.3-2.8l-3.3-0.3l-3.8-3l-0.3-2.5l-1-4.3l-0.8-3.3v-3.5l0.3-5.3l-1.3-2.3l-1.5-3.3
		l-1.8-3.3l-1.5-3.5l-2.8-3.3l-2.8,1.5l-1.5,0.8l-1.5,2l-2.5,2.3l-2,3.5l-1.8,3l-0.8,4.8l1.5,3.5v3.5l-0.5,1.5l-3.5,0.3h-5H736l-1-4
		l-0.8-4.8l2-2.5l0.5-3l-2.5-2.3H732h-5.3h-3.5l-2.3,2.3l-1.3,1l-0.5,1.5l-0.5,1.5l-1,3l-0.8,1.8l-2.5,0.5h-1.8l-3,0.3
		c-2.3,1.3-2.3,1.3-2.3,1.3l-2,0.3h-1.3L700,349l-4.3,0.5l-1.5-1c0,0-1.3-1.5-1.3-2.3s-0.8-2.3-0.8-3.3s-0.3-2.3-0.5-3.3
		s-1.3-3.3-1.3-3.3s-1,0-2.3-1.8s-1-1.8-3.3-3.5S683,326.5,683,326.5z"/>
</g>
<g id="NorthernEurope">
	<path fill="none" stroke="#000000" stroke-miterlimit="10" d="M756.8,328l-1.5,0.8l-1.5,2l-2.5,2.3l-2,3.5l-1.8,3l-0.8,4.8l1.5,3.5
		v3.5l-0.5,1.5l-3.5,0.3h-5H736l-1-4l-0.8-4.8l2-2.5l0.5-3l-2.5-2.3H732h-5.3h-3.5l-2.3,2.3l-1.3,1l-0.5,1.5l-0.5,1.5l-1,3l-0.8,1.8
		l-2.5,0.5h-1.8l-3,0.3c-2.3,1.3-2.3,1.3-2.3,1.3l-2,0.3h-1.3L700,349l-4.3,0.5l-1.5-1c0,0-1.3-1.5-1.3-2.3s-0.8-2.3-0.8-3.3
		s-0.3-2.3-0.5-3.3s-1.3-3.3-1.3-3.3s-1,0-2.3-1.8s-1-1.8-3.3-3.5s-2-4.8-2-4.8l2-3.5v-2.8v-4.5v-2.3V311l2.5-4.3l5.5-2.5v-3.8
		l4-3.5l1.5-2.5l1.5-3l2.5-2.6l2.3-2.1l2.5-4.3c0,0-0.5-2,0-3s1.5-4,1.5-4v-3.3v-1.8l-1.3-3L707,264l1.8-5.3l4.3-2l4.3,1.3l1.5,2.5
		l1.3,3.5c0,0,0,3.3,0,3.5s-1.8,2.8-1.8,2.8v3l1.8,1l2.8,0.5c0,0,1.8-1.5,2.5-2s2.5-1.5,2.5-1.5l3-1.3l6.5-0.5h3.8h3.3h3.8l3.5,1
		l2,2.3l2.3,1.3l4,2.3l3.8,3v5c0,0-0.8,0.5,0,2.5s0,4.9,0,4.9l2.8,2.9l1.3,2.8l1.5,2.5v1.3v4c0,0-0.8,1-1.3,1.8s-1.5,3.5-1.5,3.5
		l-1.5,4.3l-0.8,1.8l-1.3,4l-5,1l-2.3,0.3l-1.3,5L756.8,328z"/>
</g>
<g id="Ukraine">
	<path fill="none" stroke="#000000" stroke-miterlimit="10" d="M777,364l-3.3-0.3l-3.8-3l-0.3-2.5l-1-4.3l-0.8-3.3v-3.5l0.3-5.3
		l-1.3-2.3l-1.5-3.3l-1.8-3.3l-1.5-3.5l-2.8-3.3l-2.8,1.5l-2.5-1.5l1.3-5l2.3-0.3l5-1l1.3-4l0.8-1.8l1.5-4.3c0,0,1-2.8,1.5-3.5
		s1.3-1.8,1.3-1.8v-4v-1.3l-1.5-2.5l-1.3-2.8l-2.8-2.9c0,0,0.8-2.9,0-4.9s0-2.5,0-2.5v-5l-3.8-3l-4-2.3l-2.3-1.3l-2-2.3v-2v-3.3
		l-2.5-2.5V261l1.3-4.3l1.3-2.5v-4.5l2.8-2l4.3,2.5c1.5,1.3,2.8,3,2.8,3v-2l1.3-1.5l-2.8-2l-1.5-2.3l-2.5-2V240v-2l2-2.8h6.5h2
		l0.5-3.8l3.3-1.5l2.5-2.3l3-2.7v-2.3v-3.5v-3.5v-4.1l5.3-5.6v-2.8V202l2.3-0.5l2.3-1.3V198l2-3.5l2-1h1.5l1.8-0.8l1.8,3v3h3.3l1-3
		l-1.5-3l1.5-1.5h2.5h3l2.5,2l3.5,0.8v-2.8V189l2-2.5l3.3-1.3l2-1.3v-2l-3.3-4v-3.8V170l0.3-3h3h4l3.3,2.8v3.3l1.3,2.8l4.3-0.3l3-3
		l3.8-3l3.8-3.8l2.5-2.3l1.8-1.8h4h2.5l5.3,1.3l3.3-1.3l2-3.2h1.5h4l5.8,1.2l3,2.8l2.8,2l3,3.5l2.3,5.8v3.5v4l-1.8,2.8l-1.8,2.8
		l-1.8,3.3l-2.8,2.5v4.3l1.5,4.8l0.3,3.5l0.5,5l1.3,4.3l-0.3,3l-1.3,4.5l-0.8,3.5l1,3.8l1.3,4.8v3.8l-2,2.3l-2,3.5l1.8,2.8l1.5,2.5
		l2.3,2.5h3l1.5,3l-1.8,4l-3-1.3l-0.3,5.8l2,1.8l1.5,3.3v3l1.5,3l-4.5,2.8l-4,1.5l-2.8,1.8l-1.5,2h-2.3h-5.3h-3H860l-2.5,1.3v3H855
		h-2.8h-3.8l-1.3,1.8l-3,1.4h-4l-1.3,3.6v3.3l-1.8,4l-2.5,2.3l-0.8,4.5l0.5,5.3l1.8,4.3l2.8,5.5l1.3,2.8l1,2.3l1.5,2.5l2,1.3
		l-0.5,2.3l-2.8,2.5l-2.5,3.5l-2.5,3.3l2.5,4.5l1.8,3.8l1.5,3l1.8,3.3l1,1.8l1.5,2.5l3,1.8l1.3,2.3l-1,2.8l-1.8,1.5l-1.8,1.8
		l0.3,3.8l0.3,3l-0.3,2.3l0.3,2.5l-2.8,2l-2.8,1.4l-3.5,1.6l-3.5,1.8h-4.8l-3.8-1.3l-2-2.1l-2.5-5.6l-1.8-1.8l-2.8-2l-3.5-3.5
		l-2.5-2l-1.8-1.8l-2-2.8v-2l-3-0.8l-2.3-1.5v-3.3l2.8-2.3l2.5-3.3l1.3-2l-2.5-0.8l-3.5,0.5l-0.5,2.3h-2.3h-2.3h-3l2.5,3l2,1.8
		l0.5,2l-0.5,2.5l-1.8,2.5l-1.5,0.8l-1.5,1l-4,0.3l-2.3-2.3v-1.8l-1.5-1v-2l-4.3-1v-3.5l-3.5,3.3v3.5L777,364z"/>
</g>
<g id="NorthAfrica">
	<path fill="none" stroke="#000000" stroke-miterlimit="10" d="M736.5,449.5V446l1.5-5.8v-3.8l-1.8-1.8h-3.5l-3-1.5l-4.8,1.5
		l-2.5,2.3H720l-4-1.8l-4-2l-3-2.3h-3.8h-3l-2.8,2l-2.5-0.8h-4.3l-2,2.8h-3l-3.5-2.3l-2.5-0.3l-1.5,1.8v2.3l-3,1.5l-2,1.8l-2.3,1.9
		l-3.3,1.1l-1.5,1.3l-2.3,1l-4.3,0.5l-3-0.5l-3.3,0.3v2.8l-2,1.5v3.8l-2,2.5l-1.8,3.5v4.5v2.4v1.7h-1.4l-3.2,1.7l-1.2,1.2l-0.8,1.5
		v1.8v1.5l-1.5,2.3v1.7l-1.7,2v2.2l-1.5,3.3l-0.8,1.8l-2.2,1l-1.5,1.3l-1.7,2.2v3.7l0.8,0.8l1,2.7l0.3,1.5l0.5,1.7l0.5,2l0.5,1.3
		l-0.5,3l-0.2,1.2l-0.2,2l-1.2,2l-1,2.2l-1.7,1.8v2.2c0,0-0.5,1-0.7,1.8c-0.2,0.8,0,1.7,0,1.7l-0.1,1.3l0.7,3.3l0.2,1.7l0.3,3.2
		l1,2.7l0.7,2.5l0.7,3.3l1.8,1.8l0.8,1.2l2.3,1.3l1.2,1.5l2,3.2l0.2,0.8l1.2,2.3l0.5,3.2l-0.5,2.3l2,1.5l1,1.3l1,1.5l1.2,2.2h2.3
		l2,2.7l1.7,1.5l1,2.7l1.2,1.8l1.7,1.8h2.5h3h3.2l1-0.8l1.5-0.8l2-1.5l3-0.2c0,0,1,0.8,1.8,1.5c0.8,0.7,1.3,1.2,1.8,1.8s1.8,2,1.8,2
		h2.7h2.3c0,0,0-1,0.7-1.5s2.7-2,2.7-2l1-0.5c0,0,0.3-0.2,1.2-0.5c0.8-0.3,4-0.3,4-0.3l3.8-0.2l2.8-0.3h2.3l2,0.2c0,0,0.8,3,0.8,3.5
		s0.3-0.2,0.7,1.7c0.3,1.8,1.2,2.8,1.8,2.8c0.7,0,3,0,3,0l2.7,0.8c0,0,1-0.5,3,0s3.3,0,3.3,0l1.2,1.2l0.3,2.2v2.5v1.7
		c0,0-0.5,2.2-0.8,2.7c-0.3,0.5-0.5,1-0.5,1.5s1.8,1.7,1.8,1.7h2.2l2-1.3l2.8-0.3l2.2-1.2l2.7-1.2c0,0,0.5-0.5,0.5-1
		s2.5,0.3,2.5,0.3l2.5-0.2l3.7-0.8l1.8-1.3c0,0-0.5-2.2,0-2.8c0.5-0.7,0.7-1.3,0.8-2c0.2-0.7-0.5-2.2,0-3c0.5-0.8-0.6-2.5,0-3
		c0.6-0.5-0.3-2.3,0.1-3.2c0.4-0.8,0.2-3,0.1-3.5s0.1-2.8,0.1-2.8s1-0.8,1.5-1c0.5-0.2,3.3-1.8,3.3-1.8l1.7-1.7l1.5-2l4.2-3.3
		l2.5-1.7l3-2.2V554v-4.5c-0.2-1.3-0.7-5-0.7-5v-2.8l0.7-3l2-0.7l1-2.5v-1.3l-0.7-2.3l0.7-4.5v-3.2c0,0,0.3-1.2,0-1.8
		c-0.3-0.7-1.3-4.2-1.3-4.2l-1.2-1.5l-2.3-1.5l-1.2-1.4l-0.7-0.9l-2.7-1.7l-1.3-1l-1-1.8l-0.2-1.7l-4-0.2l-1.3-1.5
		c-1-0.7-0.5-0.2-2-1.3c-1.5-1.2-1.5-1.2-1.5-1.2l-2.5-1.8l-5.8,0.8l-2.5-1l-1.3-1.8l-3.2-3.5l-0.7-2l-2.7-3L728,488l-1.3-3.2
		l-1.2-1.8l-0.2-3.5c0,0-1.2-2.3-1.3-2.8s-0.5-0.3-0.5-1.5c0-1.2-0.2,0.2-0.2-3.7s1.3-6,1.3-6l0.8-2.8l1.7-2l1-2.7l2.5-2.2
		L736.5,449.5z"/>
</g>
<g id="EastAfrica">
	<path fill="none" stroke="#000000" stroke-miterlimit="10" d="M764.8,554v-4.5c-0.2-1.3-0.7-5-0.7-5v-2.8l0.7-3l2-0.7l1-2.5v-1.3
		l-0.7-2.3l0.7-4.5v-3.2c0,0,0.3-1.2,0-1.8c-0.3-0.7-1.3-4.2-1.3-4.2l-1.2-1.5l-2.3-1.5l-1.2-1.4l-0.7-0.9l-2.7-1.7l-1.3-1l-1-1.8
		l-0.2-1.7l-4-0.2l-1.3-1.5c-1-0.7-0.5-0.2-2-1.3c-1.5-1.2-1.5-1.2-1.5-1.2l-2.5-1.8l-5.8,0.8l-2.5-1l-1.3-1.8l-3.2-3.5l-0.7-2
		l-2.7-3L728,488l-1.3-3.2l-1.2-1.8l-0.2-3.5c0,0-1.2-2.3-1.3-2.8s-0.5-0.3-0.5-1.5c0-1.2-0.2,0.2-0.2-3.7s1.3-6,1.3-6l0.8-2.8
		l1.7-2l1-2.7l2.5-2.2l3.2-3.5l2.8,0.8h2.2l2.7,0.8l0.8,3.2l1.5,2l2.3,1.7l1.3,1l1.7,1.7l2.8,1l1.5,1.8l3.3,0.5c0,0,0,0,0.2-0.7
		c0.2-0.7,0.8-1.8,0.8-1.8s-0.2-1.2,0-1.8c0.2-0.7,0-0.8,0-1.7c0-0.8,0-1.5,0-1.5l1.7-1.5c0,0-0.5-2,0-2.7c0.5-0.7,1.5,0,1.5,0h2.7
		h1l2,0.8l2.7,1.2l2.5,3.2l3.3,1.5l1.7,1l2.5,1.2l2.7,1l1,0.5l2.8,0.2l3.3-0.8l1.2-1.3l2-1.7h2.3l1.3,2.5l0.7,1.2l1.3,1.7l1,1.8
		l1.5,1.7l0.8,1.3l0.8,1.3c0,0,0.3,1.8,0.8,2.8c0,0-1,1-1.7,1.7c-0.7,0.7-0.7,1.2-0.7,1.2l-0.8,1.2l-0.2,1l0.7,2l1,1.7l1.5,3.5
		l2.5,2.8l1.3,4.5l1.8,3.2l1.3,2l1.7,2.8l3.4,2.7c0,0,1.8,2,2.4,4.5c0.7,2.5,0,1.7,0,2.9s-0.3,1.4-0.5,2.3c-0.2,0.8,0,1.8,0,1.8
		l0.2,2l2.5,3.7c0,0,1.2,1.2,2.5,2s2.2,1.5,2.2,1.5s-0.2,1.2-0.2,1.8c0,0.7-0.3,1.8-0.3,3c0,1.2,0,1.3,0,1.3v2.2
		c0,0,1.7,1.8,2.3,2.2s1.2,0.2,2.5,0.8c1.3,0.7,2.2,2.5,2.7,3.2s1.7,1.5,1.7,1.5s2,1.2,3.2,2.2s1.2,1.7,1.2,1.7l-0.2,3.5v2l0.2,1.8
		l1.2,2h3h1.3l2.8-0.3l2.5-0.7c0,0,1.2-0.3,1.7-0.5c0.5-0.2,2.5-0.5,2.5-0.5l4-1.8c0,0,0.7,0,2.5,0c1.8,0,3.3,0,3.3,0h1l0.5,1.8
		c0,0,0.7,0.8,0.7,1.3s-0.7,2.5-0.7,2.5v2l-0.8,1.8l-1,2.3l-0.8,2.2c0,0-0.7,3.3-0.8,3.8s0,1,0,1s-1.3,4-1.7,4.5
		c-0.3,0.5-0.3,1.5-0.3,1.5l-1.8,3v1.8l-0.8,2c0,0-0.3,0.7-1.3,2s-1.3,2.8-1.3,2.8s-0.5,0.8-0.8,1.3c-0.3,0.5-1.2,1.8-1.7,2.7
		l-0.7,2.5l-2,1.2l-2.2,2.2l-3,3.3c0,0-0.5,0.7-1.7,1.7c-1.2,1-1,1.2-2.2,1.8s0,0.8,0,0.8l-1.7,2.8c0,0,0,0-3.5,1.9
		c-3.5,1.9-2.2,2.1-2.2,2.1s-1.5,2.2-2.5,3c-1,0.8-0.8,1-0.8,1s-1.2,1.8-2.2,2.8s-0.7,1.2-2,1.8c-1.3,0.7,0,1.8,0,1.8l-2.7,2.7
		c0,0,0,1.5,0,2.2s0.8,0.5,1.3,1.2c0.5,0.7,0.8,3,0.8,3s1.2,1,0,3c-1.2,2,0.2,1,0,1.5c-0.2,0.5,0,1.2,0,1.2v4.3c0,0-2.7,3.3-3.7,4.3
		s-1.5,1.3-2.5,1.2c0,0-1.5-1.3-2-1.5c-0.5-0.2-1.8,0.5-1.8,0.5s-0.7,0.5-2.5,1.5c-1.8,1-1,0.7-1.5,0.8s-0.7,0.2-1.3,1
		c0,0-0.7,5.8-0.2,6.3s-0.5,1.5,0,2.5s-0.5,2.3-0.1,4.7c0.4,2.3-0.9,0.7-0.9,0.7s-0.7,1.8-1.2,3.2c-0.5,1.3,0,0-0.2,1.2h-1.5
		l-0.7-0.8c0,0-1-1-1.7-1.2s-0.5-0.8-0.5-0.8h-1.2l-0.3-1.8l-0.7-0.8c0,0,0.2-1,0.7-2.5s0.2-1.2,0.5-2.2s0.8-0.8,0.8-1.7
		c0-0.8-1-2.2-1-2.2l-0.2-3.2c0,0-0.3-1.3-0.5-1.8c-0.2-0.5-0.2-1.7-0.2-1.7s0-1.7-0.7-2.8c-0.7-1.2-0.8-1.3-0.8-1.3s-1-0.5-1.7-1.2
		c-0.7-0.7-1.2,0-1.2,0s-2-1.2-1.7-1.7s0.8-1.3,1-2c0.2-0.7,0.2-1.3,0.2-1.3l-0.2-1.7l-1.3-1.2h-1l-1.7-1.5c0,0-0.7-0.8-0.8-1.3
		c-0.2-0.5-1.3-2.5-1.5-3.3c-0.2-0.8,0.3-1.3,0.3-3.3l1-3.2l-0.7-2.2l-0.3-1.8c0,0,0,0,2.3-3.3c2.3-3.3,0,0,0.3-0.7c0.3-0.7,2-3,2-3
		s0,0,0.3-0.7c0.3-0.7,1.3-2.3,1.3-2.3s0,0,0.2-0.7c0.2-0.7,0.5-1.7,1.2-2.8c0.7-1.2,0.8-0.8,0.8-0.8s0.7-0.5,1.8-2.2
		c1.2-1.7,1-1.2,1-1.2s0.7-1.7,1.2-2.3s0.7-1.5,1-2s1.2-1.8,1.2-1.8s1.2-1.2,2.5-2.8c1.3-1.7,1.5-1.7,2.2-3c0.7-1.3,0-1.5-0.5-2.7
		c-0.5-1.2-1.2-0.8-1.7-1c-0.5-0.2-1.3-0.3-2.7-1.1s-1.8,0.3-3.2,0c-1.3-0.3-3.2,0-3.2,0s-0.8,0.1-1.7,0s-3.5,0.2-4.8,0
		c-1.3-0.2-2.2,0-2.2,0h-2.2c0,0-0.8-0.8-1.5-1.7c-0.7-0.8-1.5-0.8-2-1.5c-0.5-0.7-1.2,0-1.2,0s-1.5-0.3-3.1-1.2
		c-1.6-0.8,0.4-0.7-0.1-1.3c-0.5-0.7,0.5-1.7-0.1-2.3c-0.6-0.7,0.6-1.3-0.1-3.2c-0.7-1.8,0.3-1,0-1.5c-0.3-0.5-1-1.2-1.7-1.7
		c-0.7-0.5-0.8-0.8-0.8-0.8l-1.5-2.2l-1.2-1.7c0,0,0,0-0.2-0.5s-0.3-2-0.8-2.5s0-1,0-1l-0.8-1l-2.4-2.7v-2.2l-0.8-2h-1.5L764.8,554z
		"/>
</g>
<g id="SouthAfrica">
	<path fill="none" stroke="#000000" stroke-miterlimit="10" d="M721.3,594.8c0,0.5,1.8,1.7,1.8,1.7h2.2l2-1.3l2.8-0.3l2.2-1.2
		l2.7-1.2c0,0,0.5-0.5,0.5-1s2.5,0.3,2.5,0.3l2.5-0.2l3.7-0.8l1.8-1.3c0,0-0.5-2.2,0-2.8c0.5-0.7,0.7-1.3,0.8-2c0.2-0.7-0.5-2.2,0-3
		c0.5-0.8-0.6-2.5,0-3c0.6-0.5-0.3-2.3,0.1-3.2c0.4-0.8,0.2-3,0.1-3.5s0.1-2.8,0.1-2.8s1-0.8,1.5-1c0.5-0.2,3.3-1.8,3.3-1.8l1.7-1.7
		l1.5-2l4.2-3.3l2.5-1.7l3-2.2V554l2.3-0.8l0.8,2v2.2l2.4,2.7l0.8,1c0,0-0.5,0.5,0,1s0.7,2,0.8,2.5s0.2,0.5,0.2,0.5l1.2,1.7l1.5,2.2
		c0,0,0.2,0.3,0.8,0.8c0.7,0.5,1.3,1.2,1.7,1.7c0.3,0.5-0.7-0.3,0,1.5c0.7,1.8-0.5,2.5,0.1,3.2c0.6,0.7-0.3,1.7,0.1,2.3
		c0.5,0.7-1.5,0.5,0.1,1.3c1.6,0.8,3.1,1.2,3.1,1.2s0.7-0.7,1.2,0c0.5,0.7,1.3,0.7,2,1.5c0.7,0.8,1.5,1.7,1.5,1.7h2.2
		c0,0,0.8-0.2,2.2,0c1.3,0.2,4-0.2,4.8,0s1.7,0,1.7,0s1.8-0.3,3.2,0c1.3,0.3,1.8-0.8,3.2,0s2.2,1,2.7,1.1c0.5,0.2,1.2-0.2,1.7,1
		c0.5,1.2,1.2,1.3,0.5,2.7c-0.7,1.3-0.8,1.3-2.2,3c-1.3,1.7-2.5,2.8-2.5,2.8s-0.8,1.3-1.2,1.8s-0.5,1.3-1,2s-1.2,2.3-1.2,2.3
		s0.2-0.5-1,1.2c-1.2,1.7-1.8,2.2-1.8,2.2s-0.2-0.3-0.8,0.8c-0.7,1.2-1,2.2-1.2,2.8c-0.2,0.7-0.2,0.7-0.2,0.7s-1,1.7-1.3,2.3
		c-0.3,0.7-0.3,0.7-0.3,0.7s-1.7,2.3-2,3c-0.3,0.7,2-2.7-0.3,0.7c-2.3,3.3-2.3,3.3-2.3,3.3l0.3,1.8l0.7,2.2l-1,3.2
		c0,2-0.5,2.5-0.3,3.3c0.2,0.8,1.3,2.8,1.5,3.3c0.2,0.5,0.8,1.3,0.8,1.3l1.7,1.5h1l1.3,1.2l0.2,1.7c0,0,0,0.7-0.2,1.3
		c-0.2,0.7-0.7,1.5-1,2s1.7,1.7,1.7,1.7s0.5-0.7,1.2,0c0.7,0.7,1.7,1.2,1.7,1.2s0.2,0.2,0.8,1.3c0.7,1.2,0.7,2.8,0.7,2.8
		s0,1.2,0.2,1.7c0.2,0.5,0.5,1.8,0.5,1.8l0.2,3.2c0,0,1,1.3,1,2.2c0,0.8-0.5,0.7-0.8,1.7s0,0.7-0.5,2.2s-0.7,2.5-0.7,2.5l0.7,0.8
		l0.3,1.8h1.2c0,0-0.2,0.7,0.5,0.8s1.7,1.2,1.7,1.2l0.7,0.8h1.5c0.2-1.2-0.3,0.2,0.2-1.2c0.5-1.3,1.2-3.2,1.2-3.2s1.4,1.7,0.9-0.7
		c-0.4-2.3,0.6-3.7,0.1-4.7s0.5-2,0-2.5s0.2-6.3,0.2-6.3c0.6-0.8,0.8-0.8,1.3-1s-0.3,0.2,1.5-0.8c1.8-1,2.5-1.5,2.5-1.5
		s1.3-0.7,1.8-0.5c0.5,0.2,2,1.5,2,1.5c1,0.2,1.5-0.2,2.5-1.2s3.7-4.3,3.7-4.3l0.1-0.2l1.4,2.5l0.8,3.6l0.3,0.6l0.8,1.5l0.6,2.6v1.6
		c0,0-0.2,2.5-0.1,3s0,1,0,1v1.5l-0.6,4.8v4v2.4l-1.3,2.1l-1.1,2.1l-1.3,1.2l-2.5,2.6l-2.1,1.1l-3.5,1l-2.4,0.9l-2.1,2.6l-0.9,1.3
		l-1.8,2c0,0-0.6,0.5-1.8,1s-0.7,0.1-0.7,0.1l-2.2,2.4l1.3,1.4l0.9,1c0,0,0.1,1.3,0,3s-0.4,2.8-0.6,3.5s0.3,1,0,1.6
		s-0.5,2.8-0.8,3.9s0,1.1,0,1.1v2.4l-0.4,2l-0.6,1.1c0,0-1,0.8-2.8,2.5l-2.3,1.4c0,0,0,0,0.1,1.9s0,2.3,0,2.3l-1.8,1.9v1l-0.6,3.3
		c0,0-3.1,3.1-4.1,4.3c0,0-1.3,1.9-1.5,2.9s0.3,0.8,0,3.3l-1,1h-1.1c0,0-1.9,0.4-2.6,0.8s-1.4,0.9-1.4,0.9l-0.9,0.8c0,0,0,0-0.5,0.3
		s-1.3,1.3-1.3,1.3s-0.6,1.3-0.9,2s-1.1,1.1-1.1,1.1l-1.4,1.4c0,0,0,0-0.5,0.9s-1.3,1.8-1.3,1.8l-0.9,0.9l-1.4,0.5l-0.8,0.3
		l-0.9,2.1c0,0-2.8,0.1-3.1,0.1s-1.1,0-1.1,0l-1.1,0.6h-2.1l-1.6-0.3c0,0,0,0-0.8,0s-0.8,0.6-0.8,0.6s-1.6,1-2.4,1.3s-0.6,0.1-1,0
		S756,755,756,755h-1.1h-1.6l-1.9-1h-1.6c0,0-2-0.5-2.4-1s-1-1.1-1.4-1.9s-0.5-1.1-0.6-1.5s-0.1-2,0-2.6s0-1.3,0.3-2.1s0.3-1,0.3-1
		l0.1-1.3l0.8-2c0,0,0.1-0.6,0-1s-0.5-1.1-1-2c0,0-0.6-1.6-1.1-2.5s-0.9-1.1-0.9-1.1s0.1-1.8,0-2.4s-0.6-1.1-0.6-1.1l-1.3-1.4
		l-1-1.8c0,0-0.6-1.5-1.1-2.6s-0.8-1.9-0.8-1.9l-0.9-1.6v-1.8l-1.7-1.6l-0.6-2.5c0,0,0,0-0.1-1.1s-0.1-2.3-0.1-2.3s-0.1-2.4-0.3-3
		s0-0.8,0.1-1.4s0.1-2,0.1-2.4s0-1.8,0-2.4s-0.3-2.1-0.1-2.6s0.1-2.8,0.8-3.4s-0.4-0.9-0.6-2s-0.1-2.5-0.1-2.5l-1-1.6
		c0,0-0.4-0.6-0.8-1.1s-0.6-0.9-1.3-1.9s-1.4-1.9-1.4-1.9s-1.4-1.6-2-2.3s-0.9-1-1.2-1.5s-0.6-2.3-0.6-3.1s-0.1-1.4-0.1-2
		s-0.1-3-0.1-3s0-1.3,0-2s0.3-2.8,0.3-2.8l0.6-1.6l2.1-1.6c0,0,0.6-1.6,0.6-2.1s0-1.3,0-1.8s-0.1-1.4,0.3-1.8s0.8-1.9,0.8-1.9
		s0,0,0.6-0.6s1.1-1.6,1.1-1.6s1-1.4,1.5-1.6s0.8-1.6,0.8-1.6l0.1-2c0,0,0,0-0.1-0.5s-1.4-2-1.4-2s-0.5-0.9-1-2.1s-0.6-1.3-0.6-1.6
		s0.6-1.6,0.6-1.6s0.4-0.9,0.5-1.3s0.6-1.4,1-1.6s0.9-1,0.9-1h0.6v-1.1c0,0-0.8-0.9-1.3-1.4s-1.4-1.9-1.4-1.9l-2.4-2.8
		c0,0-0.9-3-0.9-3.5s-0.3-1-0.8-1.8s0.1-1.4,0-1.9s-0.8-2.5-0.9-3.5s0,0-0.4-0.5s-1-1.9-1.4-2.8s-0.6-1.8-1.4-2.5s0-0.6,0-0.6
		l-0.8-1.8c0,0-1.3-1.6-1.5-2.3s-1.1-1.6-1.1-1.6s-1.1-1.3-1.9-1.6s-0.8-1.8-0.8-1.8v-1.8v-1.6v-1.6v-2l0.6-1.4l0.9-1.9L721.3,594.8
		z"/>
</g>
<g id="Madagascar">
	<path fill="none" stroke="#000000" stroke-miterlimit="10" d="M840.5,682.5l0.8-3.3l1.2-1.2l1.7-2.7l2.2-1.7h2.7h3.7
		c0,0,0.8,0.2,1.3,0c0.5-0.2,1.8-1.2,1.8-1.2l1-1.5l2.2-1.8v-1.8v-1.2h1.8l1.5-0.8V663v-2.2V658h1.8h1h2.8c0,0,1,2,0.8,0
		c-0.2-2,0-3.8,0-3.8s-0.5-0.8,0-1.8s1-2.2,1-2.2l0.8-1.5h2l2.2,1.2l0.8,1.5l1.7,2.8l1.2,2.5l1.3,2.5c0.7,1.2,1.2,2.3,1.2,2.3v1
		l0.7,3.1v2.3v1.5c0,0,0.2,1.5,0,2.2c-0.2,0.7-0.5,2-0.7,2.8c-0.2,0.8-0.2,0.8-0.2,0.8s-0.2,1.5-1,2.3c-0.8,0.8-1.2,1.3-1.7,1.7
		c-0.5,0.3-0.5,0.3-0.5,0.3l-1.7,2l-0.7,1l-1.3,1.7l-0.5,2.7l0.2,2c0,0,0.2,2,0.2,2.7s0.2,1,0,1.7c-0.2,0.7-0.3,1.2-0.8,2.2
		s-0.5,1.8-1,2.5c-0.5,0.7-0.8,1.2-1.3,2.2s0.2-0.5-0.5,1c-0.7,1.5-0.8,2.7-0.8,2.7s-0.2,1-0.5,1.8c-0.3,0.8,0,0.7-0.7,1.8
		c-0.7,1.2-0.8,2.5-1.5,3.3c-0.7,0.8-0.8,2-0.8,2s-0.2,0.8-0.7,1.7c-0.5,0.8-0.3,2-1,2.5c-0.7,0.5-0.7,1.3-1.3,2
		c-0.7,0.7-1.9,1.5-1.7,2s1,0.8,0,1.5c-1,0.7-2,2.2-2,2.2l-0.5,0.8h-2.5c0,0-0.2,1.2-0.3,1.7c-0.2,0.5-0.3,0.7-0.3,1.5
		s-0.3,3.2-0.2,3.7c0.2,0.5,0.3-0.5,0.2,0.5s-1.3,2.2-1.3,2.2l-0.3,1.2l-1.7,1l-1.7,1.8h-0.8l-0.8-1.2l-1.7-1.5l-1.5-1.2l-0.8,1.2
		L843,737l-1.2,1.8h-2.2l-0.8,0.7h-1.3c0,0,1-1.7,0-2.5s-1.5-1.7-1.5-1.7v-1.5c0,0-0.3-0.8-1-1.7c-0.7-0.8-2.2-1-2.2-1
		s-0.3-1-0.8-1.7s-0.8-2.2-0.8-2.2l0.8-2l0.8-1l1-1.3c0,0,0.2-0.3,0.2-0.8s-0.7-1.8-0.7-1.8l-0.7-1.2c0,0-0.7-1-0.7-1.7
		s-0.8-3.5-0.8-3.5v-1.8l1-0.5l1.2-2.2l0.8-1.3l1-2.3l0.3-0.8l1.2-1.2l1-0.2l1.5-1.5v-1.3l0.7-1.2c0,0,1.5-0.7,0.5-2
		c-1-1.3-1-1.3-1-1.3l-0.3-2.3c0,0-0.3,0.1-0.3-1.4s0-3,0-3l0.7-2.2l1.7-1.2l-0.3-2L840.5,682.5z"/>
</g>
<g id="EasternUnitedStates">
	<path fill="none" stroke="#000000" stroke-miterlimit="10" d="M426.5,387.5l0.3-2l1.1,0.2l-1.5,0.8l-0.8-2.5l-2-2.2l-1-1.7l-1-1.3
		v-1.5l-0.7-1.2l-1.3-2.8v-2.8l-1-2.5v-3l-0.8-2.8l2.5-2l2.8-1l0.7-1.2l0.3-2.3l-0.2-4.5v-2l0.5-1l1.2-1.2l0.8-2.2l0.2-1.5l0.7-1.5
		l2.8-1l1-0.5l2.2-1l0.8-0.8v-4.3l1.2-4l3.2-1.3l2.3,0.5l3.2,0.3h2.3l1.3-1.2l2.7-3.8l0.8-2.5l-0.2-4.5l0.2-3.2l-0.7-4.3l1-3.3v-3.2
		v-3.3v-2.7v-3.3v-2.7v-3.3v-2.7v-3.3v-2.7l0-3.9c1.6-0.1,3.2-0.2,3.7-0.2l4.8-0.3c0,0,1.8,0.5,2.3,0.5s1.3,1.2,1.3,1.2l3.7-0.5
		l3.5-0.5l1.2-1h0.8c0,0,0,0,0.7,0.2c0.7,0.2,1.5,0.3,1.5,0.3l3.2,2.3l0.5,1.5v1c0,0,0.5,2.3,0.8,3.2c0.3,0.8,0.7,3.7,0.7,3.7
		l2.2,0.5l2,0.7l2,2.2l0.7,0.8l0.3,0.8l1.7,1.5h3.3v-2.3L492,289l-0.2-2.3v-3.8l0.2-2.2l0.3-5.2l-0.3-2.2v-3l1.2-2l-0.1-3.2
		c0,0,0.2-0.7,0-1.2c-0.2-0.5,0-2,0-2l-1-2l1-0.3l2.3-1.8l-1.1-5.3V248v-1.8v-2.5v-2.2l2.6-3.3h2.7l1.3-1.7l1.8-1.7l1.5-2v-2.7v-2.3
		l-1.5-1.7l-0.8-2.7l-0.7-2.8v-2.2l0.7-3l1.2-2.7l2.3-1.7l1.3-1.8v-2.7v-3.3v-2.7l0.8-2.5h3h2.3h1.8h2.3h3.2h1.3l2.3-1.2l2.7,0.7
		l1,2l1.5,1.7l1,1.2v2l1.5,1.2l1,2v1.5v2.7v1.7v1.5v2.2l-0.7,1.2l0.7,1.3v1.3c0,0,0.8,0.3,1.5-1.3c0.7-1.7,1-2.5,1-2.5l1.3-1.8
		l1.7-2.2l2.8-1.3l2.5,0.5l1,1l1.3,1.8v2.5v1.8l1.3,2.5l1.2,0.3l1.2,1.2l1.3,1.8v1.7l0.5,1.3v3.7v2.3l0.7,1.2l1,1.2l1.5,0.3l2.3,1.7
		l1.3,0.8l1.3,1.2v2l1.2,2.3l1.7,1.8l2.7,2.5l0.8,2.3l0.8,2.5v3l-0.8,2.5l-0.8,1.5l-1.5,2.2l-1.5,1.3l-1.8,2l-2.7,1.2h-2.2l-2.2,2.3
		l-2.5,1.8l-0.7,1.2l-2.2,2h-3.3l-1.5-1h-1.7l-1.7,1l-2.3,1.3l0.8,1.5l1,2.2l0.7,1.2v2.2v2.8l-0.2,2v1.5l1,0.8h2.7h0.8h2.2l1.2,1.5
		l0.3,1.3v1.5l-1.2,1.7l-0.3,2.5l-1.3,2.7l-1.2,1.3H543l-3,1.8l0.3,2.5l-0.7,2.3l-0.7,1.5l-1.7,3.2l-2.3,1.8h-3.8l-2.2-1.5l-0.3-1.3
		l-0.7-3v-1.2l-0.5-0.8l-2.3,0.8l-0.5,1L524,313v1.7l-1.5,3.7l-0.8,1.8l-1.8,2.8l-0.8,2.3l-0.7,2l-2,2.8l-2.8,2.8l-1.5,1.7l-1.7,2
		l-1,2.7l-0.7,1.2v2.7l1,2.2l0.2,1.5v2.2l-1.2,2.2l-1.3,2.7l-1.5,1.7l-1.5,2.5l-2.8,1.7l-2.5,1.7l-2,2.3l-2,0.8l-1.8,1.3l-1.6,1.2
		l-1.2,2.2v2v1.5v3l0.7,3.2l0.5,2.3l0.2,2.8l0.2,2.8l0.2,3.3l-0.8,3.2l-2.7,2.7l-2.2,2l-2,0.8l-3.8,1l-1-1.8l-0.7-0.8l-0.8-1.7
		l-0.8-3.2v-2.2l-0.8-3.3V384l0.7-3.2V378l-0.7-1.5l-1.8-0.3l-1.2,1l-1.8,1.2l-1.8,0.3l-2-0.3H466l-3.3-0.8l-1.2-0.3L460,376
		l-2.7-0.5l-2.8,1.3l-3,1.3l-3-0.3h-3.3l-2.8,0.3l-2.8,0.3l-2.8,1.8l-2.3,0.5l-1.8,1.7l-1.7,1.5l-1.5,1.5l-1.5,0.2L426.5,387.5z"/>
</g>
<g id="CentralAmerica">
	<path fill="none" stroke="#000000" stroke-miterlimit="10" d="M451.3,275.7c-1.6,0.1-3.1,0.3-3.1,0.3s-2.8-0.7-3.3-0.7
		s-0.7-0.2-1.7,0c-1,0.2-2.7-0.2-3.2-0.2s0.2-0.2-2.3,0.2c-2.5,0.3-3.5,0.3-4,0.3s-0.5,0-0.5,0s-0.5,0-1.3,0c-0.8,0-1.5-0.2-3.2-0.2
		c-1.7,0-1.7,0-1.7,0l-3.5-0.2l-8.3,0.5c0,0,0.3,0.2-1.8,0c-2.2-0.2-2.5-1.2-4.2-0.8c-1.7,0.3-3.7,0.2-4.3,0.3
		c-0.7,0.2-9.8,0.7-9.8,0.7s0.3-0.2-1-0.3c-1.3-0.2-2-0.3-2.8-0.3c-0.8,0,1.2,0.2-0.8,0c-2-0.2-4.8-0.5-5.5-0.3
		c-0.7,0.2-1.3,0.2-2,0.2c-0.7,0-0.7-0.3-3.2-0.2s-1.5,0.3-2.5,0.2c-1-0.2-3.2-0.3-3.2-0.3l-2.7,0.7l-1.3-1.7l0.3,1.9l2,4v1.8
		l-1,3.5l-3.5,2v2.5v2.3v3.3v3.3l-1.5,3.8v3.8v2l1.3,3.3l-1.3,1.5l-1.3,3.8c0,0,0.3,1.5,0,2.5s-1.3,4.3-1.3,4.3v5.5v4.5
		c0,0-0.3,2.5,0,4s2.8,5.8,2.8,5.8l1.4,5l3.1,7.5l1.3,5l2.5,4.8v7.5l1.3,6.3l1.5,4l1.8,6.3l3,3.8l1.5,4.8v1.8l4.5,5.5l2,4.8l2.8,2.3
		l1.3-5.3c0,0,1.8-5.5,0-6.8s-3.8-4.5-4.3-6.3s0.3-2-1-4.8s-2.3-6-3-7.3s-1.5-2.8-1.5-2.8l-0.3-5.5l-1-4.3c0,0,2.5,4.8,2.5,5.5
		s2,6,2,6l2,3.5l2,3.8l0.5,4.3l1.8,2.8l1,1.5l1.7,1.8l2.3,3.8l1.3,2.5v6v3.3v4.5l2,2.8l3,3.8h2.5l4.8,1.8l3.8,2.8l2.8,2.5v3
		c0,0-0.8,2,0,4s0,3.5,0,3.5h4.5v2.3l1.3,3.3v4.5l1.3,6l1.8,4.3l1.8,1.8l3.3,2.3l2.8,2.5h3.8l2,3v-5.3l3-3l3-1.5l2.3-2.3V456l2.8-3
		v-1.8l-5.5-0.3l-5.3-0.5l-0.8-2c0,0-0.3-2.3,0.8-3s-1.3,1.5,1-0.8s3.8-4,3.8-4s0-2.3,0-3s0-0.8,0-0.8s2.8-2.3,3.3-3.5
		s0.5-1.3,0.5-1.3s-1.5-4-2.5-5s-1-3-2-2.8s-3.5-0.8-4-2s2-2.3,2-2.3s3-1.5,3.5-2.3s1-1.8,1.5-2.5s1-0.5,1-2.3s0-7,0-7s0,0,0-1.5
		s1-3.8-0.5-3.8s-1-0.3-3,0.5s-4.8,1.8-4.8,1.8s-0.8-0.8-1.8,0.3s1.5-1.8-1,1s-2.5,2.8-2.5,2.8l-1.3,4c0,0-1.3,0-2,0s-1.5,0-2.8,0
		s-3.3,0-3.3,0l-1.8-2v-2.8c0,0,0-0.5,0-2s-1.5-5.3-1.5-5.3l2.5-5.3c0.5-6.5,0.5-6.5,0.5-6.5l0.3-2l1.1,0.2l-1.5,0.8l-0.8-2.5
		l-2-2.2l-1-1.7l-1-1.3v-1.5l-0.7-1.2l-1.3-2.8v-2.8l-1-2.5v-3l-0.8-2.8l2.5-2l2.8-1l0.7-1.2l0.3-2.3l-0.2-4.5v-2l0.5-1l1.2-1.2
		l0.8-2.2l0.2-1.5l0.7-1.5l2.8-1l1-0.5l2.2-1l0.8-0.8v-4.3l1.2-4l3.2-1.3l2.3,0.5l3.2,0.3h2.3l1.3-1.2l2.7-3.8l0.8-2.5l-0.2-4.5
		l0.2-3.2l-0.7-4.3l1-3.3v-3.2v-3.3v-2.7v-3.3v-2.7v-3.3v-2.7v-3.3v-2.7L451.3,275.7z"/>
</g>
<g id="Ural">
	<path fill="none" stroke="#000000" stroke-miterlimit="10" d="M881.8,168l2.3,5.8v3.5v4l-1.8,2.8l-1.8,2.8l-1.8,3.3l-2.8,2.5v4.3
		l1.5,4.8l0.3,3.5l0.5,5l1.3,4.3l-0.3,3l-1.3,4.5l-0.8,3.5l1,3.8l1.3,4.8v3.8l-2,2.3l-2,3.5l1.8,2.8l1.5,2.5l2.3,2.5h3l1.5,3l-1.8,4
		l-3-1.3l-0.3,5.8l2,1.8l1.5,3.3v3l1.5,3l-4.5,2.8l-4,1.5l-2.8,1.8l-1.5,2h-2.3h-5.3h-3H860l-2.5,1.3v3H855h-2.8h-3.8l-1.3,1.8
		l-3,1.4h-4l-1.3,3.6v3.3l-1.8,4l-2.5,2.3l-0.8,4.5l0.5,5.3l1.8,4.3l2.8,5.5l1.3,2.8l1,2.3l1.5,2.5l2,1.3l-0.4,0.6l1.3,0.2l2.2-1.5
		v-0.8l0.8-1.7l2.3-1.7l3.2-0.8c0,0,1.3,1.7,1.7,2.5c0.3,0.8,0.3,2,0.3,2l-0.3,2.2l-0.8,3l-3.3,1.7v1.7v3v1.3v4.8l1,3.5
		c0,0,2.3,1,3.2,1.2c0.8,0.2,2.2,0.7,2.2,0.7l0.3,2l-1.3,2.7v1.5v2.8l1.8,2.8l1.5,0.3l2.7,1l-1,3.2l-1.7,3.3l1.8,2.5l1.3,1l1.8,0.5
		v2.2v1.5v2v3.7l2,0.5l2.3-1.5l2-1l2.3,1h2.3l1.8,1.3h2.8l1.8,2.3l1.2,2.3l1.2,2l1.5,2.2l2.7,1.5h1.7l2.5-1.5h1.2l1.2-1.2l0.3-1
		l0.5-1.3l0.8-2l1.2-2.2l1.3-1.5h1.7h1.3h2l1.2-1l1.5-2.7l0.7-2.8l2.3-0.8l2.8,1.2l1.8,0.8l2,1.7l1,0.8l0.7,1.2h1.5l1.5-0.8l2-1.3
		l3-2.5l1.7-2l0.8-2.7l-0.2-1.8l-1.5-2.7l-1.5-1.5l-1.5-3l-1-1.8l-0.2-3l-0.7-4.5l1.3-1.8l2.3-2.8l2.3-0.8l1-1.5l1.7-2.2l1.7-2.5
		l2.2-2.7l1.2-2.7c0,0,1.3-3.8,1.5-4.3c0.2-0.5,0.2-1.5,0.2-1.5l-0.5-3.8l-0.5-1.7l-1.2-2.8l0.8-2.3l1.5-2.7l1.7-3.8
		c0,0,0.7-2.3,0.7-2.8s1.2-2.2,1.2-2.2l1-3.7v-1.8l3.2-2.3h2v-1.7l-0.8-3.2l2-1.7l2.3-0.7l1.3-2V290l-1-3.8v-1.8l-2.8-2.8l-2.5-4.2
		l-2.2-3.7l-0.8-1.3h-3.8v-2.5v-3.5l-1.2-2.3l-1.7-1.7l-1.7-1.7l-3.2,1.7c0,0-0.8-0.8-1-1.3c-0.2-0.5-0.7-3-0.7-3l0.2-2l2.3-1
		l0.8-1.5c0,0-0.2-2.5-0.2-3.2c0-0.7,0.5-2.3,0.5-2.3l2.8-1.8v-1.5V242v-3.7v-2.8l-2.5-2.2l-2-2.2l-0.7-2.3l1.7-2.7l1-1.5v-3
		l-0.8-2.8l-1.8-2.2l-1.7-2.3l-1.3-1.8l-2.2-3l-0.8-1.3l-0.7-1.3l-1.5-2.5l-1.3-1.7l-1-2.2v-3v-2.3v-2.3V191l-1.5-0.8h-2.5l-0.8-1
		l0.8-1.7v-1.3l-0.7-1.7H915v-1.7l-1-0.8l-0.8-3v-1.7L911,176l-2.2-2v-1.5v-1.7v-2.2v-2.5l-0.7-0.8l-2.8-1.3l-1.5,1.5l-0.8,1.2
		l-1.8,1.7l-0.8,2.2c0,0-0.7,2.2-0.7,2.8c0,0.7,0.3,2.3,0.7,3.2c0.3,0.8-1,1.2-1,1.2L898,179l-1.2,1l-1.5,1.3l-2.5,0.7l-2.2-0.8
		l1.3-2l1.3-1l1-2.3l1.2-1.5l1.5-2.3l1.3-1.8l0.8-1.8l1.2-2.5v-2l-1.3-3l-1.2-2.5l-1.7-1.7l-1.3-1.3l-1.7-2.2l-0.5-1.3l-0.8-1.8
		l0.2-0.8l0.2-1.2l0.5-2l0.8-1.2l1.3-1.2v-1.2l-1-1.7v-2v-1.3l-2.3-0.3l-0.8-0.8l-3.2-0.3l-1.5-1.8l-1.2-1.5L884,130l-2.2-0.8h-1.5
		l-0.9,1.8v2.3v2.5l-1.3,0.7l-0.5,1h-1l-1,2.3l1.5,2.2l0.8,1.7l-1.5,3.8l-1.2,1.2l-1.3,1.2v1v1.5l1.2,1.7l0.7,1l2.3,1.7l2.5,1.3v1.5
		v2.7h2.6h0.9l0.7,0.8v1.5v1.2h-2l-1.2,1.2L881.8,168z"/>
</g>
<g id="Siberia">
	<path fill="none" stroke="#000000" stroke-miterlimit="10" d="M951.7,295.7l1.3-2V290l-1-3.8v-1.8l-2.8-2.8l-2.5-4.2l-2.2-3.7
		l-0.8-1.3h-3.8v-2.5v-3.5l-1.2-2.3l-1.7-1.7l-1.7-1.7l-3.2,1.7c0,0-0.8-0.8-1-1.3c-0.2-0.5-0.7-3-0.7-3l0.2-2l2.3-1l0.8-1.5
		c0,0-0.2-2.5-0.2-3.2c0-0.7,0.5-2.3,0.5-2.3l2.8-1.8v-1.5V242v-3.7v-2.8l-2.5-2.2l-2-2.2l-0.7-2.3l1.7-2.7l1-1.5v-3l-0.8-2.8
		l-1.8-2.2l-1.7-2.3l-1.3-1.8l-2.2-3l-0.8-1.3l-0.7-1.3l-1.5-2.5l-1.3-1.7l-1-2.2v-3v-2.3v-2.3V191l-1.5-0.8h-2.5l-0.8-1l0.8-1.7
		v-1.3l-0.7-1.7H915v-1.7l-1-0.8l-0.8-3v-1.7v-4.8v-4l-1.4-1.8v-1.3V164l-1.8-1.3h-1.3v-1.3h-3H904h-2l-2-2.9v-2.1l-1.5-3.3V149
		l-2.8-3.5V141l1.8-2.8h1.5l1-1.3l2.3,1.3l2.2,4.5v2.3l2,1.3l1.3,0.3l1.3,1.3l2.3,1.3v-4.5l-1.8-2.5l-1.3-1.5l-1.5-2.3l-2.3-3.8
		v-3.8V127h1.5l1.8-1.8l1.8,1.3l2.3,3.8l1.4,1.5l1.3,2.3h2v-1.5l-2-1.5l-1.5-1.8l-1.5-2.2l-0.3-1.8L911,122l0.3-1.5l1.8-1.3l3.5-1h2
		l1.8,2v-2v-4.8h1.3l3.5-1.8l2.5-3.3l2-2.3l4.3-2.3h2.3h1.5h2h1.3h1.8v-2.8l1.5-1.5h2.8h3.8h2.5h1.5v1.5l2.3-1.5h2.3l2.8-3.3h1.3
		v-1.3l4.5,2.3c0,0-0.3,1,0,1.8s1.3,3.8,1.3,3.8l1.8,1.8l2.8-1.3l4.3-0.3l2,0.5l1.3,3.5v1.5l-1.5,2v1.3l1.5,2.8l-2.5,1.5l-4.3,2
		l-2,1.8l-1.3,1.5l-1.5,1.3l-1.8,2.8l-1.5,3.7l2.8-2.4l3.3-2.8l1.3-1l3.8-2.8l3.8-2.5l2.3,0.3l1.3,2l2.3,1.5l1.8-2.5l4.3-0.8h3
		l2.5,0.3l1.3,2.3l2.3,1.8l3.3-1.3V119l1.8-2.8l3.8-2l3.8-0.3l2.5-0.3l1.5,1.3v1.3v2.3v1.8c0,0-0.8,1,0,1.8s2,3.8,2,3.8l1.8,0.3
		l4.3,3.2l1.5,2.3l1-2.3l1.3-2.4c0,0,1-0.5,2-1s4-1.3,4-1.3l1.8,0.5l2,0.5l2.3,0.3c0,0,0.3-0.8,0-1.5s-1-2-1-3.5s0-3.3,0-3.3l3.8-1
		l2.5,1h4h2l3.3,1.5v4.3l2.3-2.3l2.8-2.3c0,0,1.5-2.5,2.8-1.3s2,2.5,2.3,3.5s0,3,0,3s0.8,0.8,1.3,2s1.5,3.2,1.5,3.2V127l1.8-0.3
		l2,0.3l1.8,2.2l2.8,1.3l-1.8,1.8l-0.8,3c-0.8,2.5-0.8,2.5-0.8,2.5l-3,3.8l-1.5,1.5l-1.5,1l-2.3,1.8l-1.8,2l-1.5,2.8l0.3,4.5l1,3.6
		l1.8,2.9l4.3,2.8l1,2.5l0.3,4.5l-2.3,4.8l0.3,1.3l-1.5,2.7h-2.3h-1.5l-1.8-2.8l-1.8,2.8h-2l-1.5-2l-0.5-2.3l-1-2.8l-1-1.8l-4.3,0.5
		l-2.3,1.5l-2,3.3l-2.5,3.5l-1.3,1.8l-0.3,2l-0.5,3.5l-0.5,2l-2,1.8l-1.8,3l-3.8,2.8h-5.8h-4.5h-3l-0.8,1.5l-3,2.5l-2.5-3.5l-2.3,2
		c0,0,0-0.5,0,1.5s0,4,0,4.8s0,0.8,0,0.8l-2,2.3h-1.3l-2.5,1.5l-3,2h-3.5l-0.8,3l-0.8,3l-0.8,3.3l-0.8,2.3l-0.5,2.3l1,2.5l1,1.8
		l1.5,3c0,0-0.5,1-1,2.3s-0.5,1.3-0.5,1.3l-0.5,3.8l0.3,3.3c0,0-1,1-1,1.8s-2,2.3-2,2.3l-4.3-1.5l-0.8-3.3l-0.8-1.8l-2.3-1.8l-1.3-1
		l-3.5,2l-3.3,2.3l-1,1.8l-1.8,3.3l-0.5,3.3l-2.8,1.5H970l-0.8,3.8l0.5,2l0.3,2.3c0,0,0.8,2.5,1.3,3.3s0.3,2,0,2.8s-0.5,3.3-0.5,3.3
		l-2.8,4.2l-1.5,3.1l3.3,3.3h3.3l1.3,2.8l1.5,1.3l1,1.3c0,0-0.3,2-0.5,2.8s0.3,3.3,0.3,3.3l-0.8,4.3l0.8,3l1,1.5l1.8,3.3l0.3,2.3
		l-0.3,5l-1.5,3.3l-0.5,3h-2.5l-3.3-1.8c0,0-2-2.3-2.3-3.3s-2-6-2-6l-1.3-4.5l-3.5-1.8l-3,2l-2.8-1.8L953,297L951.7,295.7z"/>
</g>
<g id="MiddleEast">
	<path fill="none" stroke="#000000" stroke-miterlimit="10" d="M801.5,478.3l5.5,1.5l2.8,1.8l2.3,4.3l2.5,3l1.5,2l1.3,3.5l2.3,4.5
		c0,0-1.5,2,0,2.5s3,3.3,3,3.3l3,3.8l2,2.3l2.3,3.3l2.5,5l2.3,6v3.8l1.5,1.5l1.8,3.8l2.3,1.8l4.3,1.3h6.3h4.3l3.3-2
		c0,0,0.3-0.5,1.8-1.5s1.5-1,1.5-1l5.3-3.3l5.3-3.5l2.5-2c0,0,1.3-1.3,2.8-1.3s2.3-0.5,3-2.5s0-4.5,0-4.5l3.8-3.8l5.3-4l1.5-6l2-4.3
		l0.8-5.5v-2.5c0,0,0-3,0-4.5s0-4.3,0-4.3L891,475l-3.3-2.8l-3-2l-2.3-2.5l-3.5-2c-1.5,0-3.3,1.8-3.3,1.8l-3.3,2.3h-3.3l-1.5-1.5
		v-2.5v-3l-2.3,1.3l-1.8-2.8L861,459l-1.5-2.3l-2.5-2l-0.5-6l-0.5-6h2.5l1.5-1.3l2.3-3.8l2.8,3.8l0.3,2.5v2.5l-0.3,2.3
		c0,0-0.3,2,0,2.8s0.3,1.5,0.8,2.5s1.3,2.5,1.3,2.5l0.5,1.3l2.5,1.5l3,2h2h4.5l1.3-1.8l0.8,1.8l2,2.3l1.3,1.3l2.3,0.3l4-1.5l2.3-2.3
		V459l4.3-2.8V455l2.5-4l2-1.8l-1.8-3.8l-0.3-1.8l-1.5-2.5l-1-2.3c0,0-0.3-2.3,0-3.5s0.8-4.3,0.8-4.3l-2-5L893,420l-1.8-4.5
		l-0.5-5.5v-3.8v-3l-0.3-3.8V397l-0.5-1.5l1,0.2h-1.7l-2.7-1.5l-1.5-2.2l-1.2-2l-1.2-2.3l-1.8-2.3h-2.8l-1.8-1.3H874l-2.3-1l-2,1
		l-2.3,1.5l-2-0.5l0.2,0.5v3v2H864h-4h-3.8H853l-2.3-2.5v-1.3L848,384l-1.3-2.5v0.5l-2.8,2l-2.8,1.4l-3.5,1.6l-3.5,1.8h-4.8
		l-3.8-1.3l-2-2.1l0.5,0.6l-1.5,1.3l-3.3,0.8h-6h-5c-2-2.5-3.3-4-3.3-4l-1.5-1.5l-5-1h-4h-3.5l-2,2.5l-4.8,2l-2.8,2H778h-3.3l-2.3-4
		l-3.8-2.5h0.8L767,384l-2,3.5l-2,3v2.3l-1.5,4.5v2.3l-1.5,3.8v2l-0.3,1l2.8,3.8v2.8v5l2,3.3l3,1.8h4l2.8,1.8h5h5l3.5,1.8v1.8h3.5
		h3.8h1.8v-2.5l1.5-1l2.8-3l2,3c0,0-0.3,2.8,0,3.5s0.3,3,0,3.8s0.6,2,0.2,3.3s0,3.3,0,3.3s-1.2,2.5-0.9,3.3s1.6,1.8,1.1,2.8
		c-0.6,1,1.1,1.5,0.1,2.5c-0.9,1-0.2,2.8-0.9,3.5s-1.8,1.5-2,2.3s-0.8,1.3-1.3,2s1-1-0.5,0.8s-1.5,1.8-1.5,1.8l-1,1.8l-1.8,2.5
		l0.2,0.6l1.3,2.5l0.7,1.2l1.3,1.7l1,1.8l1.5,1.7l0.8,1.3l0.8,1.3c0,0,0.3,1.8,0.8,2.8c0,0-1,1-1.7,1.7L801.5,478.3z"/>
</g>
<g id="India">
	<path fill="none" stroke="#000000" stroke-miterlimit="10" d="M995.8,431.4v-2.1c0,0-0.9-0.5-1.1-1.5s-0.8-1.6-1-2.5
		s-0.5-1.4-0.8-1.9s-2.3-2-2.5-2.5s-0.5-0.6-0.9-0.9s-3.8-1.1-3.8-1.1s-1.9-0.5-2.6,0s-1.6,1.9-1.6,1.9l-1,0.8h-2.9l-2.4-0.5
		l-1.1-1.5l-2-3l-3.3-0.6l-3.3-0.8c0,0-0.1-0.8-0.5-1.1s-1.6-1.3-1.6-1.3l-3-0.9c0,0-0.5,0-1,0s-3.6,0-3.6,0l-3-2.8
		c-1.1-0.8-2.1-1.5-2.1-1.5l-1.9-1.3l-1.6-0.8l-2.1-1.1l-2.6-0.9l-1.6-2.6l1.1-2.3c0,0,1.5-2,1.8-2.4s1.8-2.1,1.8-2.1l-0.3-2
		l0.1-3.5c0,0,0.1-1.1,0.1-1.9s0-2.8-0.1-2.9s-0.3-2.5-0.3-2.5l0.5-2.3l-0.9-0.8h-2.1h-3l-3.1-1l-0.3-3.8l-0.3-1.5l-0.8-0.8h-1.8
		H931h-1.4l-0.3,0.7l0.2,1.8l-0.8,2.7l-1.7,2l-3,2.5l-2,1.3l-1.5,0.8H919l-0.7-1.2l-1-0.8l-2-1.7l-1.8-0.8l-2.8-1.2l-2.3,0.8
		l-0.7,2.8l-1.5,2.7l-1.2,1h-2h-1.3H900l-1.3,1.5l-1.2,2.2l-0.8,2l-0.5,1.3l-0.3,1l-1.2,1.2h-1.2l-2.5,1.5l-1-0.2l0.5,1.5v2.5
		l0.3,3.8v3v3.8l0.5,5.5l1.8,4.5l3.3,6.3l2,5c0,0-0.5,3-0.8,4.3s0,3.5,0,3.5l1,2.3l1.5,2.5l0.3,1.8l1.8,3.8h1.9h1.8l0.6,1.5l1.6,1.8
		l0.8,0.6l1.4,2c0,0,0.8,1.5,0.8,2.1s0.8,1.9,0.8,1.9l2,2.1c0,0,0.9,1,1.5,1.1s2.3-0.5,2.9,0s0,2.6,0,2.6l-1.4,2.3l1.7,2.5l2.1,1.4
		c0,0,0.3,0.3,0.6,0.6s1.8,2.6,1.8,2.6h1.8l0.8-2.3l1.1-2l2-1.8c0,0,1.1-0.6,1.3,0s0.8,1.6,0,2.4s-1.4,1.6-1.5,2s-0.3,0.5-0.4,1.6
		s-0.5,2.6-0.5,3.1s-0.1,2.4,0.1,2.9s0.5,3.4,0.5,3.4l-0.6,1.9l-0.1,2.6l-0.1,2.4l-0.1,2.8l0.1,2l1.6,1.8l2.1,2.1c0,0,0,3.3,0,3.6
		s0,3.4,0,3.4v2.5c0,0,1.9,1.3,2.3,1.6s2.8,2,2.8,2v0.6v2.5c0,0,0.5,1.4,0.9,2.4s0.6,1.9,1,2.9s0.3,3,0.6,3.4s1.1,2.4,1.1,2.4v3
		c0,0,0.8,1.3,1.1,2.1s1,2,1.1,2.5s2.1,2.6,2.1,2.6s0.4,1.1,0.6,1.8s0.8,1.8,0.9,2.1s-0.6,1.4,0,2s1.3,2,1.3,2l0.8,2.3h1.9h1.8h1.3
		v-2.5l2-1.6l1.4-1.5c0,0,0.4-0.4,0.6-1.1s0.8-1.5,0.6-2.5s-0.4-2.1-0.4-2.8s0.4-1.1,0.4-1.9c0-0.8-0.9-0.9,0-1.5
		c0.9-0.6,1.1-1.6,1.1-1.6s1.1-1.5,1.4-1.9s0.6-1,0.6-1l0.6-2.5l0.1-1.6c0,0,0-2.9,0-3.3s0.6-0.6,0-1.6s-0.9-2-1-3s-0.1-2.3-0.1-2.3
		s1.1-1.3,1.1-1.6s0.4-1,0.9-2s1.8-3.9,1.8-3.9s0.5,0.9,0.5-1.4s0-3.6,0-4.3s0-2.5,0.3-3.8s0.3-2.5,0.4-3s0.4-2.4,0.5-3.4
		s0-1.8,0.4-2.3s2.4-1.3,2.4-1.3s0.4-0.1,1-1.3s0.9-1.6,1-2s0.6-2,0.9-2.6s0.8-1.9,0.8-2.5s0.1-3.9,0.1-3.9v-2v-2.4l1.1-0.8l1.4-0.3
		h3.5h1.9c0,0,1.1-0.3,1.4-1.3s0-2.9,0-2.9l-1.6-5.1l-0.1-3.4l0.6-1.5c0,0-0.3-0.1,1.2,0.4c1.5,0.5,1.5,0.5,1.5,0.5l1.6,4.1l1.3,3.1
		l1.8,4.3c0,0,1.8,4,2,4.8s2.3,4.8,2.3,4.8l1.8,3.8l3,3.3l2.8,3h3h2.5h4.5l2.8,6c0,0,1.3,2.5,1.5,3.3s-0.8,4,0,4.8s0,4.3,0,4.3
		l0.3,4.8c0,0-2.3,3.8-1.8,4.5s3,4.8,3,4.8l3,2.3l1.8,3.8l2.5,4c0,0,2,2.8,2.5,3.5s1.8,2,1.8,2h3.3h3.8l1.3-3c0,0-1.3-1.8-1.3-2.5
		s-2.3-3.5-2.3-3.5l-1.3-3.5l-2.3-4.5l0.8-4.3v-3.8l-3.3-1.5l-2-3.5v-5.3l1.5-0.8c0,0,1,0.3,1.3,1s1.3,3.3,1.3,3.3l1,1.8l3.3,1.8
		c2,1.3,4.5,4.5,4.5,4.5s-1.3,1,0,2s1.8,3.8,2,4.5s0,3.8,0,3.8l1.3,1.5l3.8-1.8c2-1.5,1.3-0.3,2-1.5s1.5-2.5,2-3.3s2.8-4,2.8-4
		s1.5-2.5,2-3.8s-0.8-1.8,0-2.5s1.3-2.3,1.5-3.5s0.3-2.5,0.5-3.5s0.8-2.6,0.8-3.6s0-4.4,0-5.9s-3.3-4-3.3-4l-3-3.3l-0.5-3.3
		c0,0-0.3-2-0.8-3s-0.8-1.5-1.5-2.8s-1.5-1.8-2-3s-1.8-3-1.8-3l-2.8-3.3l-2.3-2.8c0,0-0.8-2-0.8-3s-0.3-3.8-0.3-3.8l0.8-2l2-2.3
		l1.5-1.5l-0.8-3.3l-2.5-3.5l-4.5-4l-2.5-2.3l-2.8,1.5l-1.5,2.3l-1.3,1.5l-2,1.8l-2,2.5l-0.5,1.3l-3.5-0.8l-4.8-3l-2-4.3l-2-4.8
		l-2.5-3.5l-2.8-1.8L998,429L995.8,431.4z"/>
</g>
<g id="China">
	<path fill="none" stroke="#000000" stroke-miterlimit="10" d="M1039.8,447.5l2,0.3l1.8,3l1.8,3h3.5v-1.3l1.8-2.5l1.8-2.5l1.5-2
		v-3.3h3.3h1.8l0.5-3.3l1-4.5h1.5l3.3-2.3l2.5-1.5l1.5-1.5l1.5-2l1.5-3.8V420v-2.8l1.8-2.3v-4l-0.5-4.8l1-3l2-2.3l-0.3-3l-1.3-1.8
		l-2.8-1.5v-2l1.8-2.3l1-3l-0.8-3.5l-2-2.3l1.5-2.3l1-2.5l-2.5-2.5l-1.3-2.8l-3-3.5l-3-2.3l-1.5-2v-5l2.8-2l1.5-4.8l-0.8-2.5l-3-2.3
		l-3.5,0.3l-2,0.8l-0.5-1.8l-2.5-1.3v-3V340l2.3-2v-3.1l2.8-1.6v3.8v3.3l1.8,2.5l3.5,0.3v-1.5l1.3-2.3l2.3-1.5v3.3v4.3l2.8,2.5
		l2-1.5l3.3-0.3v2v3.5c0,0,0.3,3,0.5,4.8s0.5,4,0.5,4h4.2l3.6-1l0.8-3.8l2.3-4.3v-3v-3.8v-2.8l-2.8-1.8l-3.3-3.8l-1.5-2.8l-2.8-1.3
		c0,0-2.4-4.3-2.7-5s0-2.8,0-2.8v-2.8l3.5-1.5v-3.8v-3l2-1.8v-2.3l-0.1-0.7l-3-1.8c0,0-1.7-1.5-2.2-1.7c-0.5-0.2-2-1.8-2-1.8
		l-0.8-4.8l-0.5-1.3l-3.8-1.2l-3.2-1.5l-0.2-2l2-3.3l1.8-3.7l-1.2-2l-2.2-1.5l-4.3,0.5l-1.8-2.8l-0.8-1l-1.8-3.3l-1-1.2l-1.8-3
		l-1.7-2.2l-1.5-3l-1.5-2.3l-2-2.5l-1.8-2.8l-2,0.5l-1.7,1.2l-2.2,0.5l-2.3,0.7l-2.5,1.3l-1,3.3c0,0,0,2,0,2.5s0.5,3.3,0,3.8
		s-0.8,2.3-0.8,3.3s-0.8,3.3-0.8,3.3v2.8l-2.2,1.7l-1,1.2l-2,0.3l-3.5-1l-3,0.3l-2.3,1.5l-1.5,1.5l-2,1.3l-2.3,0.2l-3.3-0.5h-2.7
		l-3-0.5l-2.2-0.3l-2.3-1.2l-3.3-0.7l-2.2,0.5l-1.2,1l-2.2,1L989,287l-2.2-0.3v-1l-3.3-1.2l-2.8-0.8h-2.3h-2.5l-0.1,0.3l1,1.3
		c0,0-0.3,2-0.5,2.8s0.3,3.3,0.3,3.3l-0.8,4.3l0.8,3l1,1.5l1.8,3.3l0.3,2.3l-0.3,5l-1.5,3.3l-0.5,3h-2.5l-3.3-1.8c0,0-2-2.3-2.3-3.3
		s-2-6-2-6l-1.3-4.5l-3.5-1.8l-3,2l-2.8-1.8L953,297l-1.3-1.3l-2.3,0.7l-2,1.7l0.8,3.2v1.7h-2l-3.2,2.3v1.8l-1,3.7
		c0,0-1.2,1.7-1.2,2.2s-0.7,2.8-0.7,2.8l-1.7,3.8l-1.5,2.7l-0.8,2.3l1.2,2.8l0.5,1.7l0.5,3.8c0,0,0,1-0.2,1.5
		c-0.2,0.5-1.5,4.3-1.5,4.3l-1.2,2.7l-2.2,2.7l-1.7,2.5l-1.7,2.2l-1,1.5l-2.3,0.8l-2.3,2.8l-1.3,1.8l0.7,4.5l0.2,3l1,1.8l1.5,3
		l1.5,1.5l1.5,2.7l0.3-0.7h1.4h2.5h1.8l0.8,0.8l0.3,1.5l0.3,3.8l3.1,1h3h2.1l0.9,0.8l-0.5,2.3c0,0,0.1,2.4,0.3,2.5s0.1,2.1,0.1,2.9
		s-0.1,1.9-0.1,1.9l-0.1,3.5l0.3,2c0,0-1.5,1.8-1.8,2.1s-1.8,2.4-1.8,2.4l-1.1,2.3l1.6,2.6l2.6,0.9l2.1,1.1l1.6,0.8l1.9,1.3
		c0,0,1,0.8,2.1,1.5l3,2.8c0,0,3.1,0,3.6,0s1,0,1,0l3,0.9c0,0,1.3,0.9,1.6,1.3s0.5,1.1,0.5,1.1l3.3,0.8l3.3,0.6l2,3l1.1,1.5l2.4,0.5
		h2.9l1-0.8c0,0,0.9-1.4,1.6-1.9s2.6,0,2.6,0s3.4,0.9,3.8,1.1s0.6,0.4,0.9,0.9s2.3,2,2.5,2.5s0.5,1,0.8,1.9s0.8,1.5,1,2.5
		s1.1,1.5,1.1,1.5v2.1l2.3-2.4l3.5-1.5l2.8,1.8l2.5,3.5l2,4.8l2,4.3l4.8,3l3.5,0.8l0.5-1.3l2-2.5l2-1.8l1.3-1.5l1.5-2.3l2.8-1.5
		l2.5,2.3l4.5,4l2.5,3.5l0.8,3.3L1039.8,447.5z"/>
</g>
<g id="Kamchatka">
	<path fill="none" stroke="#000000" stroke-miterlimit="10" d="M975.8,284l-1.5-1.3L973,280h-3.3l-3.3-3.3l1.5-3.1l2.8-4.2
		c0,0,0.3-2.5,0.5-3.3s0.5-2,0-2.8s-1.3-3.3-1.3-3.3l-0.3-2.3l-0.5-2l0.8-3.8h2.5l2.8-1.5l0.5-3.3l1.8-3.3l1-1.8l3.3-2.3l3.5-2
		l1.3,1l2.3,1.8l0.8,1.8l0.8,3.3l4.3,1.5c0,0,2-1.5,2-2.3s1-1.8,1-1.8l-0.3-3.3l0.5-3.8c0,0,0,0,0.5-1.3s1-2.3,1-2.3l-1.5-3l-1-1.8
		l-1-2.5l0.5-2.3l0.8-2.3l0.8-3.3l0.8-3l0.8-3h3.5l3-2l2.5-1.5h1.3l2-2.3c0,0,0,0,0-0.8s0-2.8,0-4.8s0-1.5,0-1.5l2.3-2l2.5,3.5
		l3-2.5l0.8-1.5h3h4.5h5.8l3.8-2.8l1.8-3l2-1.8l0.5-2l0.5-3.5l0.3-2l1.3-1.8l2.5-3.5l2-3.3l2.3-1.5l4.3-0.5l1,1.8l1,2.8l0.5,2.3
		l1.5,2h2l1.8-2.8l1.8,2.8h1.5h2.3l1.5-2.7l-0.3-1.3l2.3-4.8l-0.3-4.5l-1-2.5l-4.3-2.8l-1.8-2.9l-1-3.6l-0.3-4.5l1.5-2.8l1.8-2
		l2.3-1.8l1.5-1l1.5-1.5l3-3.8c0,0,0,0,0.8-2.5l0.8-3l1.8-1.8l-0.9-0.5l2.8-1.2l0.7-3h2l1.2,1l3,1.1h1c0,0,1.8,2.6,2.2,3.1
		c0.3,0.5,0,1.2,0,1.2s1,1,1.5,1.3s0.8-0.7,1.5,0c0.7,0.7,2.5-0.2,3.3,0s8-0.5,8-0.5h4.2l1.3,2h1.3c0,0,1.5,0.3,1.5-0.8
		c0-1.2-1.2-3.1,0-3.7c1.2-0.6,2.5-1.4,2.5-1.4s2.8-0.3,3.7-0.2c0.8,0.2,4.3,0.2,4.3,0.2s1.7-0.2,2.5,0c0.8,0.2,2,1.4,2.5,1.4
		s0.8,0.6,1.2,1.1s0.5,0.8,1,1.7c0.5,0.8,0.7,1.3,1.5,1.9s1.3,1,2,1.3c0.7,0.3,4,1,4,1l2.5,1c0,0,1.5,0.8,2.2,1.7
		c0.7,0.8,2.2,1.7,2.2,1.7s0.5-0.2,1.7,0.8s2,1.5,2.7,2c0.7,0.5,2.2,2.3,2.3,3s-0.8,2.3,0,2.3s3.7-0.8,3.7-0.8l3-0.3l1.7,2.8
		l1.3,1.5l4,1h1.5c0,0,0.7,1.5,1.2,2s1.3,1.3,1.7,2s0.7,1.2,0.7,2.2s0,2.5,0,2.5s-0.8,0.7-1.3,1c-0.5,0.3-0.5,0.3-0.5,0.3l-0.2,1.7
		c0,0,2.3-0.5,0.8,1.7c-1.5,2.2-1.5,2.2-1.5,2.2l-0.8,0.8l-1.3,1.2l-2.2,1.5c-1,0.3-2,0-2,0l-2.7,0.1h-0.8l-1.8-0.8l-1.3-1.2
		c0,0-0.2-1.2-0.2-1.7s-0.5-2.5-0.5-2.5l-0.5-1l-2.3-0.2l-2-0.7l-2.7-2l-1.3-1.8l-1.2,2.2c0,0-0.3,2.3-0.8,2.5s-0.5,0.2-0.5,0.2
		l2.5,3l1.5,1.5l1,1l1.2,1.5c0,0,0.7,0.5,0.8,1s0.5,3.8,0.5,3.8s0.3,0.5,0,1s-3,2.8-3,2.8l-1.7,2c0,0-0.3,0.5-1,1.3
		c-0.7,0.8-1.5,1.8-1.8,2.3s-0.5,1.5-1.2,2.5c-0.7,1-1.5,2.5-1.5,2.5s-0.3,0.7-1.2,1.2c-0.8,0.5-2.2,1.7-2.2,1.7l-0.3,1.7
		c0,0,0,0.7-0.2,1.5s0.3,1.3-0.2,1.7c-0.5,0.3-1.8,1-1.8,1l-2-1.5l-1.5-1.7l-1.7-1.5l-1.5-0.3l-1.2,2.5c0,0,0.5,0.3,0,1.7
		c-0.5,1.3-0.5,1.3-0.5,1.3l-3.2,0.8l-0.5,2.2l0.2,1.2l0.7,2.5l0.9,2.3l1.3,1.3l0.8,2l0.2,2.3l-0.3,3.2l0.5,2c0,0,0.5,1.8,0.7,2.3
		c0.2,0.5,0.3,2.2,0.3,2.2s0,1,0.2,1.8c0.2,0.8,0.3,1.8,0,2.3c-0.3,0.5-1.2,1.3-1.5,2.2c-0.3,0.8-0.3,2.5-0.3,2.5s0.8,1,1.2,1.5
		c0.3,0.5,0.5,1.3,0.5,2.3s0,2.3,0,3.3s0,2.3,0,2.3s0.5,0.8,0.3,1.7s-0.2,1.8-0.7,2.5s-0.8,1.5-1.3,2s0.7-1-0.5,0.5
		s-2.3,3.2-2.3,3.2h-1.2l-3.3-1.8l-2-3.8c0,0,0.3-0.2-0.8-1.7c-1.2-1.5-1.2-2-1.5-2.5c-0.3-0.5-0.7-1.2-1-2
		c-0.3-0.8-1.3-2.7-1.3-2.7l-1.2-2.3l-1.5-2.3l-0.3-2c0,0,0.5-4.2,0.5-5s-1.5-5.7-1.5-5.7s0-2.3,0.2-2.8c0.2-0.5,0.5-3.7,0.5-3.7
		l0.8-4.2l1.3-3.5l0.8-2.3l1.5-3.3l1.8-3l1.5-3.3l1.5-3.5c0,0,0.5-1.3,0.5-2.7s-1.7-3.8-1.7-3.8h-1.5l-0.8,0.8l-0.5,3l0.3,2.5
		c0,0,0.2,2.5,0.2,3.2c0,0.7,0,1.5,0,1.5l-2.3,0.5l-1.7,2l-1.7,2l-1.3-2.7c0,0,0-0.2-1-1.2s-1.8-2.2-1.8-2.2l-0.7-3.3l-1.5-2.3
		l-1.7,2.3c0,0-0.3,0.5-0.2,1.5c0.2,1,1.5,3.5,1.5,3.5l0.8,1.7c0,0-0.2,1.5-0.2,2s1.8,2.3,1.8,2.3l0.3,2.7c0,0-0.3,1.5-1,1.8
		c-0.7,0.3-1.7,1-2.5,1.3c-0.8,0.3-2.2,0.8-2.7,1c-0.5,0.2-3,0.2-3,0.2l-1-1.8l-2-3.8l-0.5-1.2l-1,0.7v2.8l-1.2,2.2l-2.8,0.2
		l-3.8-0.3l-1.7-2.2l-2,0.2l-2,2c0,0-1,0.3-1.5,0.5s-2.2,0.5-2.2,0.5l-0.8,0.2l-1.8,1.2v3l-1.5,2.8l-1.3,3l-2.2,1.7l-1.2,2.3v2.7
		v2.2l2.3-0.3l3.2-0.3l0.8,0.7l-0.5,4h2.2c0,0,2-0.8,2.5-1.3s3-0.3,3-0.3s1.5,1.2,2.2,1.8c0.7,0.7,1.5,1.3,1.7,2
		c0.2,0.7,0.3,2,0.7,2.5c0.3,0.5,2.2,2.3,2.2,2.3s0.5,0.5,0.8,1.7c0.3,1.2,0.3,2.8,0.3,3.7c0,0.8-0.5,3.7-0.5,4.5
		c0,0.8,1.7,4.3,1.7,4.3l1.7,4l1.5,3.2l-0.3,2.5l0.2,3.3c0,0,1,1.8,1.2,2.7c0.2,0.8,0.5,2.7,0.5,3.3c0,0.7,0.2,1.5,0.2,2.7
		c0,1.2-0.2,2.8,0,3.5c0.2,0.7,0.2,2.3,0.3,3c0.2,0.7-0.2,1.7-0.5,2.3c-0.3,0.7-1,1.2-1.2,2.2c-0.2,1-0.3,4-0.3,4s0.2,2.2,0,2.7
		s-0.2,3.2-0.2,3.2s0,1-0.3,2.2c-0.3,1.2-1,1.7-1.3,2.7c-0.3,1-2.2,1.5-2.2,2.2c0,0.7,0.2,3,0.2,3l-2,0.8l-2.5,1.3l-3-1.8
		c0,0-1.7-1.5-2.2-1.7c-0.5-0.2-2-1.8-2-1.8l-0.8-4.8l-0.5-1.3l-3.8-1.2l-3.2-1.5l-0.2-2l2-3.3l1.8-3.7l-1.2-2l-2.2-1.5l-4.3,0.5
		l-1.8-2.8l-0.8-1l-1.8-3.3l-1-1.2l-1.8-3l-1.7-2.2l-1.5-3l-1.5-2.3l-2-2.5l-1.8-2.8l-2,0.5l-1.7,1.2l-2.2,0.5l-2.3,0.7l-2.5,1.3
		l-1,3.3c0,0,0,2,0,2.5s0.5,3.3,0,3.8s-0.8,2.3-0.8,3.3s-0.8,3.3-0.8,3.3v2.8l-2.2,1.7l-1,1.2l-2,0.3l-3.5-1l-3,0.3l-2.3,1.5
		l-1.5,1.5l-2,1.3l-2.3,0.2l-3.3-0.5h-2.7l-3-0.5l-2.2-0.3l-2.3-1.2l-3.3-0.7l-2.2,0.5l-1.2,1l-2.2,1L989,287l-2.2-0.3v-1l-3.3-1.2
		l-2.8-0.8h-2.3h-2.5L975.8,284z"/>
</g>
<g id="NewGuinea">
	<path fill="none" stroke="#000000" stroke-miterlimit="10" d="M1084,560.5l-1.3-3.8l-2.3-3v-3.3l-5.3-1.8v-3V544l-2.8-4l1.3-2
		l3-3.5l1.5-3.8l3.3-2l2.5-1.3l1.3,1.5l2.8,3l1.5,1.3l2,0.3l2.3,0.3v4.8v4l1.8,1.5l1.5,1.3l1.5-4v-3.5v-3l1.3-1l1.8-0.8l1.8-0.5
		l3-0.5h4.5l3.5,1.8l3.8,1.8l2.5,2.3l1.3,1.8l2.5,2.8l2.5,3.8l2.8,1l2.8,1l2.3,1l1.8,1v2.5v3v3.5l4.3,1.5l2.5,1.8l1.3,1.8v1.3v2v2.8
		h-1.8l-0.5,2.3l2.3,2.3l1.3,1.5v2v2.3l2.3,2l2.5,3.3v4l-1.3,3l-1.3,2c0,0-1.2,2.2-2,2.3c-0.5,0-1.1-1-1.5-1.3
		c-0.6-0.3-2.8-0.8-2.8-0.8l-3-0.3l-2.3-0.5l-2.3-3.3l-1-3.5l-1.3-2l-2.3-1.5l-3.3,2l-0.8,2.8l-4,1.5l-3.3-0.8h-3l-3.9-0.5l-1.9-2.3
		l-2-3.3l-3.3,0.5l-1.8,1.3l-1.5-2.8l-3.8-0.3l-2-3.5l1.3-3.8l1-5.8l-0.8-3.8l-0.8-3.1h-4.8l-3.3-1.4L1084,560.5z"/>
</g>
<g id="WesternAustralia">
	<path fill="none" stroke="#000000" stroke-miterlimit="10" d="M1090.8,616.5c-0.5-0.5-2.3-0.5-2.8,0c-0.5,0.5,0.2,2.3,0,3
		c-0.2,0.6-1.3,1.6-1.5,2.3c-0.2,0.7,0,2.1,0,2.8c0,0.5,0.2,1.5,0,2c-0.3,0.8-1.4,2.6-2.3,2.8c-1.1,0.3-3.6-1-4.3-2
		c-0.3-0.4,0.2-1.6,0-2c-0.3-0.5-1.4-1.1-2-1.3c-0.9-0.3-2.9-0.4-3.8,0c-0.6,0.2-1.4,1.2-1.8,1.8c-0.6,0.8-1.2,2.7-1.8,3.5
		c-0.3,0.4-1.1,1.1-1.5,1.5c-0.4,0.4-1.1,1.4-1.5,1.8c-0.4,0.4-1.4,0.9-1.8,1.3s-1.1,1.2-1.3,1.8c-0.2,0.7,0,2.3,0,3
		c0,0.3,0,0.9,0,1.3c0,0.8,0.5,2.5,0,3c-0.4,0.4-1.7,0.2-2.3,0c-0.7-0.3-1.5-1.9-2.3-2.3c-0.3-0.1-1.1-0.1-1.5,0
		c-0.9,0.3-2.6,1.4-3,2.3c-0.4,0.7,0,2.4,0,3.3c0,0.8,0,2.3,0,3c0,1.1,0.3,3.2,0,4.3c-0.2,0.9-1.1,2.6-1.8,3.3
		c-0.8,0.8-2.8,1.7-3.8,2.3c-1,0.5-3,1.4-4,2c-0.7,0.4-2.1,1.3-2.8,1.8c-0.7,0.5-2,1.8-2.8,2.3c-0.6,0.4-2.1,0.9-2.8,1.3
		c-0.8,0.4-2.5,1.4-3.3,2c-0.6,0.5-1.4,2-2,2.5c-0.7,0.6-2.2,1.5-3,1.8c-0.9,0.2-3.8,0-3.8,0l-3.3,3v3v3.3l2,1.8h1.8l0.3,4.3l-0.3,3
		c0,0,0.8,2.5,1.3,3.3c0.4,0.7,1.5,1.8,1.8,2.5c0.3,0.6,0.4,1.9,0.5,2.5c0.1,0.6,0,1.9,0,2.5c-0.1,1.3-0.5,3.9-0.5,5.3
		c0,1.2-0.2,3.6,0.3,4.8c0.2,0.5,0.9,1.1,1.3,1.5c0.4,0.5,1.1,1.6,1.5,2c0.6,0.6,2,1.3,2.5,2c0.5,0.7,0.8,2.4,1,3.3
		c0.3,1.1,0.3,3.4,0.8,4.5c0.2,0.5,0.9,1.3,1.3,1.8c0.4,0.6,1.1,1.9,1.8,2.3c0.3,0.2,1.2-0.2,1.5,0c1,0.5,2.1,2.7,2.3,3.8
		c0.1,0.6-0.5,1.9-0.8,2.5c-0.4,0.9-1.7,2.4-2.3,3.3c-0.4,0.7-1.4,2.2-1.5,3c-0.1,0.8,0.2,2.3,0.5,3c0.3,0.9,1.2,2.8,2,3.3
		c1.3,0.7,4.3,0,5.8,0c1.5,0,4.5,0.3,6,0c0.9-0.2,2.7-1,3.5-1.5c0.5-0.3,1-1,1.3-2s1.3-3.4,2.3-4c0.6-0.4,2.1-0.2,2.8-0.3
		c1-0.1,3-0.1,4-0.3c1.1-0.2,3.3-0.7,4.3-1.3c0.7-0.4,1.9-1.5,2.5-2c1-0.9,2.8-3,3.8-4c1.4-1.5,4.8-5,5.8-5.8s4-1.4,5.3-2
		c1.1-0.6,2.9-2.4,4-3c1-0.5,3.4-1.7,4.5-1.3c0.7,0.3,0.6,2.4,1.3,2.8c0.5,0.3,1.7-0.4,2.3-0.5c1.2-0.2,3.8-0.9,5-0.5
		c0.8,0.3,1.9,1.7,2.5,2.3c0.7,0.6,2.6,1.6,3,2.5c0.3,0.6-0.1,2.1,0,2.8c0.2,1.2,1.5,3.3,1.8,4.5c0.1,0.5-0.4,1.7,0,2
		c0.7,0.5,2.8-0.5,3.5-1c0.9-0.7,1.4-4.3,2.5-4c1.1,0.3-0.9,4,0,4.8c0.8,0.6,2.9-1.4,3.8-1c0.6,0.3,1.1,1.6,1.3,2.3
		c0.2,0.6-0.4,2,0,2.5c0.4,0.4,1.7,0.4,2.3,0.5c0.7,0.1,2.3,0.6,3,0.3c0.8-0.5,1.3-2.4,1.5-3.3c0.3-1.2-0.5-3.8,0-5
		c0.4-0.9,2.5-2,2.8-3c0.3-1.3-1.9-3.9-1.5-5.3c0.2-0.9,2.5-2.3,1.5-3.3s-2.3-4-2.3-4.8s-0.3-3,0-3.8s0.7-2.4,0.8-3.3
		c0.1-1.7-0.2-5.2-0.3-7c0-1.2,0.1-3.8,0-5c-0.1-0.8-0.3-1.3,0-3.3s0.1-3,0.3-4c0.2-1.2,1.5-3.3,1.7-4.5c0.2-1,0.3-3.2,0-4.3
		c-0.2-0.7-1.1-1.9-1.7-2.3c-0.8-0.6-1.8-0.5-4,0s-2.8,0.5-3.8,0.5c-1.4,0.1-4.1,0.4-5.5,0.5c-1.8,0.1-7.3-1.3-7.3,0.5
		c0,0.5,0.3,0-2,0s-4.1-0.1-5.5-0.3c-1.1-0.1-3.2-0.4-4.3-0.5c-1.4-0.2-4.7,0.3-5.8-0.8c-0.7-0.7-0.5-3-0.5-4c0-1.8,0.9-5.4,1-7.3
		c0.1-1,0-2.3,0-4s-0.3-4-0.5-5s-0.5-5.1-0.5-6.8c0-1.2,0-3,0-4.8s-0.3-4.8,0-5.5s0.9-3.3,0.5-4.3c-0.4-0.8-2.4-1.5-2.8-2.3
		c-0.7-1.4-0.2-4.7-0.3-6.3c0-1,0-3,0-4c0-1.1,0-3.4,0-4.5C1090.8,618.9,1091.3,617.1,1090.8,616.5z"/>
</g>
<g id="EasternAustralia">
	<path fill="none" stroke="#000000" stroke-miterlimit="10" d="M1129,740c0.2-0.9,1.3-2.4,1.5-3.3c0.3-1.2-0.5-3.8,0-5
		c0.4-0.9,2.5-2,2.8-3c0.3-1.3-1.9-3.9-1.5-5.3c0.2-0.9,2.5-2.3,1.5-3.3s-2.3-4-2.3-4.8s-0.3-3,0-3.8s0.7-2.4,0.8-3.3
		c0.1-1.7-0.2-5.2-0.3-7c0-1.2,0.1-3.8,0-5c-0.1-0.8-0.3-1.3,0-3.3s0.1-3,0.3-4c0.2-1.2,1.5-3.3,1.7-4.5c0.2-1,0.3-3.2,0-4.3
		c-0.2-0.7-1.1-1.9-1.7-2.3c-0.8-0.6-1.8-0.5-4,0s-2.8,0.5-3.8,0.5c-1.4,0.1-4.1,0.4-5.5,0.5c-1.8,0.1-7.3-1.3-7.3,0.5
		c0,0.5,0.3,0-2,0s-4.1-0.1-5.5-0.3c-1.1-0.1-3.2-0.4-4.3-0.5c-1.4-0.2-4.7,0.3-5.8-0.8c-0.7-0.7-0.5-3-0.5-4c0-1.8,0.9-5.4,1-7.3
		c0.1-1,0-2.3,0-4s-0.3-4-0.5-5s-0.5-5.1-0.5-6.8c0-1.2,0-3,0-4.8s-0.3-4.8,0-5.5s0.9-3.3,0.5-4.3c-0.4-0.8-2.4-1.5-2.8-2.3
		c-0.7-1.4-0.2-4.7-0.3-6.3c0-1,0-3,0-4c0-1.1,0-3.4,0-4.5c0-0.8-0.4-2.5,0-3.3c0.4-0.7,2-1.5,2.8-1.8c1-0.3,3.1,0.3,4,0
		c1.2-0.4,2.9-2.4,4-3c1-0.5,3.1-1.3,4.3-1.5c1.4-0.2,4.3-0.3,5.8,0c0.9,0.2,2.5,0.9,3.3,1.3c0.9,0.4,2.6,1.4,3.5,1.9
		c0.7,0.4,2.6,0.7,3,1.4c0.5,0.7,0.3,2.7,0,3.5c-0.3,0.9-1.9,2-2.5,2.8c-0.5,0.7-1.6,2-2,2.8c-0.4,0.7-0.9,2.3-1.3,3
		c-0.3,0.7-1.4,1.8-1.5,2.5c-0.1,1.1,0.6,3.4,1.5,4c0.8,0.6,3-0.3,4,0c0.9,0.3,2.5,1.6,3.3,2.3c0.6,0.5,1.7,1.5,2.3,2
		c0.8,0.8,2.2,2.5,3,3.3c0.6,0.6,1.9,2.2,2.8,2.3c0.8,0,2.2-1.3,2.7-2c0.9-1.1,2-3.9,2.3-5.3c0.2-0.7-0.1-2.3,0-3c0.1-2,1-7,0-8
		s-0.7-4.5,0-5.8c0.4-0.8,2.2-1.7,2.5-2.5c0.6-1.8-0.5-6.3,0-7.5s0.4-3.4,1.3-4c0.9-0.7,3.5-0.6,4.5,0c0.6,0.4,1.2,1.8,1.5,2.5
		c0.5,1,1.4,3.2,1.8,4.3c0.4,1.2,0.9,3.5,1,4.8c0.1,1,0,3,0,4c0,1.1-0.3,3.4,0,4.5c0.2,0.8,1.3,2,1.5,2.8c0.2,0.9-0.4,2.9,0,3.8
		c0.5,1.1,2.8,2.3,3.5,3.3c1,1.2,2.2,4.2,3,5.5c0.5,0.7,1.7,1.9,2,2.8c0.3,0.8-0.2,2.6,0,3.5c0.2,0.8,0.8,2.3,1.3,3
		c0.7,1,2.6,2.5,3.5,3.3c1.1,0.9,3.7,2.3,4.8,3.3c0.9,0.8,2.6,2.4,3,3.5c0.5,1.4-0.5,4.6,0,6c0.2,0.7,1.3,1.9,1.8,2.5
		c0.6,0.9,1.6,2.7,2.3,3.5c0.6,0.9,2.4,2.4,2.8,3.5c0.2,0.5-0.1,1.7,0,2.3c0.4,1.6,2.2,4.5,3,6c0.5,0.9,2,2.5,2.3,3.5
		c0.4,1.2-0.2,3.8,0,5c0.2,1,1.1,3,1.3,4c0.2,1.4,0,4.3,0,5.8c0,1,0,3,0,4c0,0.8,0,2.3,0,3c0,1,0.2,3,0,4c-0.2,1-1.2,2.9-1.8,3.8
		c-0.6,1-2.4,2.7-3,3.8c-0.5,0.8-1.3,2.6-1.8,3.5c-0.4,0.8-1.1,2.4-1.5,3.3c-0.6,1.3-2.3,4.5-2.8,5.3s-1,2-1.3,3s-0.8,3.3-1,4
		s-1.5,2-1.8,3s0,0.9-0.3,1c-0.5,0.2-1.1,1.3-1.3,1.8c-0.3,0.9-0.3,2.8-0.5,3.8c-0.1,0.8-0.3,2.4-0.8,3c-0.6,0.7-2.4,1.1-3.3,1.3
		c-0.6,0.1-1.7,0-2.3,0c-0.8,0-2.6-0.4-3.3,0c-0.8,0.5-1.4,2.4-1.8,3.3c-0.4,0.9-0.4,3.3-1.3,3.8c-0.8,0.4-2.5-0.8-3.3-1.3
		c-0.6-0.3-1.8-1-2.3-1.5c-0.6-0.6-1.2-2.7-2-2.8c-0.6-0.1-1.4,1-1.8,1.5c-0.2,0.4-0.4,1.3-0.8,1.5c-0.7,0.4-2.5,0.3-3.3,0
		c-0.5-0.2-1.2-1.1-1.5-1.5c-0.4-0.5-1-1.6-1.5-2c-0.5-0.4-1.6-1.1-2.3-1.3c-1.2-0.3-3.9,0.4-5-0.3c-0.9-0.6-2-2.7-2.3-3.8
		c-0.3-1.2,0-3.8,0-5C1129,742.6,1128.8,740.9,1129,740z"/>
</g>
</svg>
