<?xml version="1.0" encoding="utf-8"?>
<!-- Generator: Adobe Illustrator 19.1.0, SVG Export Plug-In . SVG Version: 6.00 Build 0)  -->
<svg version="1.1" id="Layer_1" xmlns="http://www.w3.org/2000/svg" xmlns:xlink="http://www.w3.org/1999/xlink" x="0px" y="0px"
	 viewBox="0 0 1366 768" style="enable-background:new 0 0 1366 768;" xml:space="preserve">
<style type="text/css">
	.st0{fill:none;stroke:#000000;stroke-miterlimit:10;}
	.st1{fill:#FFFFFF;stroke:#000000;stroke-miterlimit:10;}
</style>
<g id="Alaska">
	<polygon class="st0" points="392,234.7 395.7,230.3 399.3,223 397.7,217.7 395.7,214.7 395.7,209.7 395.7,204 394,199 392,196 
		392,192.7 395.7,191 399.3,191 405.3,191 411,191 417.3,191 422,191 424,191 424,193 427.7,192.7 432.7,193.3 437.3,193.3 
		444.3,192.7 450,192.7 454.7,191 461.7,192.7 465.7,193.7 470.7,193 478.3,192.7 482.7,192.7 485.7,193.7 489.3,195.3 491,196 
		493.3,192.3 496.3,187.3 500,183 504,181.3 508.3,181 511.7,179 511.7,174.3 512.3,170.3 517,168.7 521,167.7 525.3,162.3 529,157 
		531.3,151.7 530.3,143.7 527,141 522,141 515,146.3 512,144 511.3,139.3 509,133 508.3,128.7 511,124.3 514.3,119 516.3,114 
		514.3,111 506.7,112.7 503.3,116.3 500.7,121 497.7,126.7 495.7,130.3 495.3,136 495.3,142.3 495,146.3 491,142 488,136.7 
		484.7,138.3 483.7,144 482.7,146.7 476.7,146.3 472.3,143 469,140.7 466.3,144 465,149 464.3,151.3 458.3,153.3 453.8,152.3 
		449,148.3 446.3,145 442.3,142 439,141 435.7,142 433.7,137 433,134.3 429,133.7 427.3,136.7 424.3,135 420.3,138 416,142.7 
		410,143.7 403.7,142.7 399,144 397,139 393,139.7 387,142 382,141 378,139 373.7,137 368.3,136.7 364.3,135 362.3,133 358.7,130.3 
		353.3,129.7 349.3,130.3 343.7,133 340.7,136.7 339.3,141.3 338,144.7 334.7,142.7 331.3,140.3 326.7,142.3 327.7,146.3 
		331.7,152.7 333.7,155 336,158.3 325.3,154 320,156.7 320,162.7 321.7,168.3 325.7,169.7 330.3,168 334.3,167.7 332.7,172 
		326.7,172 322,172 320,174.7 316,179.3 316,183.7 316,188.7 318.7,193 321,195 322,199.3 323.3,202.3 326,204.3 328.7,206.3 
		331.3,209 333,211.3 330.7,213.3 326,215.7 326,218.3 324.3,222 326,224 329.3,225.7 332.7,224 336,219.7 340,216.7 343.7,212 
		346,208 348,204.3 350,207.7 353.7,205 358,202.3 360,199.3 362,196.3 363.7,200.3 366,201.3 368.7,202.7 371.7,202.7 375,204.3 
		375,208.3 377.7,211.7 380,212 383.7,214.7 385.3,218.7 385.3,222.3 389.3,229.3 391,232 	"/>
</g>
<g id="Alberta">
	<polyline class="st0" points="491.7,196.3 491.7,201.7 491.3,213 495.3,218.3 501.7,223.7 506.7,225.3 510.3,229 516,228.7 
		518.3,230 517,233.3 517,238.3 518,245 520.3,248.7 520.3,255 518,260.3 519.2,264.5 518,267.3 518,272 518,276.7 518,279.3 
		518,282.7 515.7,282.7 512.3,279 509,276.3 507,273.3 504.7,269.3 502.3,264.5 499,264.5 494.3,265.3 491,265.3 488,264.5 
		483.3,264.5 478,265.3 473.3,265.3 463.7,264.5 456.7,264.5 447.7,263.7 438,264.5 429,263.7 423.7,263.7 416.7,265.3 409.3,265.3 
		400,265.3 400,261.7 400,257.3 400,253.3 400,250.3 396.7,247 394,241.7 391,237 391,232 392,234.7 395.7,230.3 399.3,223 
		397.7,217.7 395.7,214.7 395.7,209.7 395.7,204 394,199 392,196 392,192.7 395.7,191 399.3,191 405.3,191 411,191 417.3,191 
		422,191 424,191 424,193 427.7,192.7 432.7,193.3 437.3,193.3 444.3,192.7 450,192.7 454.7,191 461.7,192.7 465.7,193.7 470.7,193 
		478.3,192.7 482.7,192.7 485.7,193.7 489.3,195.3 491,196 	"/>
</g>
<g id="WesternUnitedStates">
	<polyline class="st0" points="400.7,343 405.7,346.3 409.3,348.7 414.3,350.3 417.3,353.7 420,357.3 423.7,357.3 428,357.3 
		432.7,357.3 436,357.3 439,360 439,362.5 440.7,364.7 443.3,364.7 447,366.7 449.3,366.7 449.3,359.7 449.3,354.8 452,351.3 
		454,347.7 454,343 455.7,337.3 455.7,334 460,331 464,328 464,324.3 464,320.3 469,320.3 473.8,320.3 478,317.7 479.7,312.3 
		479.7,306.3 479.7,301 479.7,292.7 479.7,284.3 479.7,276.7 479.7,265.3 478,265.3 473.3,265.3 463.7,264.5 456.7,264.5 
		447.7,263.7 438,264.5 429,263.7 423.7,263.7 416.7,265.3 409.3,265.3 400,265.3 402.7,267.3 404,271.7 402.3,274.7 398,277.3 
		398.7,284 398.7,287 397,291.3 397.3,295 398.3,298.7 398,303.7 395.3,306.3 395.3,314.3 395.3,321 396,327.3 397.7,333 400.7,343 
			"/>
</g>
<g id="EasternUntedStates">
	<polyline class="st0" points="449.3,365 449.3,359.7 449.3,354.8 449.3,352.7 452,351.3 454,344.7 455,339.4 455.7,334 460,331 
		464,328 464,320.3 469,320.3 473.8,320.3 479.7,315.2 479.7,306.3 479.7,301 479.7,292.7 479.7,287.8 479.7,282.7 479.7,276.7 
		479.7,270.7 479.7,265.3 479.7,276.7 479.7,284.3 479.7,292.7 479.7,301 479.7,306.3 479.7,312.3 478,317.7 473.8,320.3 469,320.3 
		464,320.3 464,324.3 464,328 460,331 455.7,334 455.7,337.3 454,343 454,347.7 452,351.3 449.3,354.8 449.3,359.7 449.3,366.7 
		451.3,371 453,371 454.3,374 455.7,375.7 456,379 458.7,376.7 463.7,373.3 466,371.3 471,369.7 474,370.3 478,370 482.3,369 
		486,367.3 488.7,368 492.7,368.7 494.7,370 498.7,370.7 500.3,368.7 503.3,367.3 505,371 505,374.7 505,379.3 505,384 505,386.7 
		507.7,390 509.3,391.7 512.7,389.7 517.7,386.3 520,375.7 517.3,368.3 517.3,363.7 520,359 523,354.7 527,351 530.7,347.3 
		534.3,342 536.7,337.7 535,331.3 536.7,327.7 542.3,320 547.7,312 550,303.5 552.3,299 555.3,294.7 555.3,289.3 555.3,285 
		555.3,280.3 552.3,276.7 547.3,278.7 545.3,283 542.7,286.7 536.7,286.7 531.3,285.3 527,281.3 522.3,282.7 518,282.7 515.7,282.7 
		512.3,279 509,276.3 507,273.3 504.7,269.3 502.3,264.5 499,264.5 494.3,265.3 491,265.3 488,264.5 483.3,264.5 478,265.3 	"/>
</g>
<g id="CentralAmerica">
	<polygon class="st0" points="400.7,345.7 402,348.3 402,352.7 404.3,358.7 404.3,365 406.3,372 409.7,379.3 412.3,384 414.3,391.7 
		416.7,397.3 419,401.7 422.7,404 422.7,397 422.7,391.7 419.7,385.3 417.7,378 415.7,371.3 414.3,362 418.3,372.7 420.7,376.3 
		425,385.3 428.7,391.7 430.3,400.3 430.3,408 434,417 441.3,417 445.7,422 449.3,425.7 449.3,432 449.3,434.7 452,436.7 454,441.7 
		454,448 455.7,455 458.3,456.7 462.3,459.3 466.7,461.7 469,461.7 471.3,458.3 474.3,455.3 477.7,450.3 481,445 477.7,443 
		473.7,443 469.7,443 469.3,440.3 471.3,435 474.3,429.7 477.7,425.3 477.7,422 475.3,420 470.3,413.7 475,410.7 479.7,406.7 
		479.7,397.7 479.7,394 472.3,391.7 469.7,394.7 466.7,396.3 463,400.7 461.7,403.7 455.7,403.7 453.3,401 453.3,394.3 455.7,386.7 
		455.7,379.7 456,375.7 452,369.7 449.3,366.7 447,366.7 443.3,364.7 440.7,364.7 439,362.5 439,360 436,357.3 432.7,357.3 
		428,357.3 423.7,357.3 420,357.3 417.3,353.7 414.3,350.3 409.3,348.7 405.7,346.3 400.7,343 	"/>
</g>
<g id="Greenland">
	<path class="st0" d="M555.3,104.5h4.7l2.5-4l6-4l5-3L578,91v2.5l4,4.3l2.5-4.3L588,91l5.5-4.5l5-4L606,76h5h7h5.5l7.5,3l6,0.5
		l5,2.5v4l-5.5,4.3h5.5h6l4.5-5.3l5.5-1l4.5,2v4.3L658,94l-2.5,5l-2,5.5l-1,6.5v5.5l1.5,7.5l1.5,3.5l-1,4L652,136h-5.5v4.5l3,5l2,4
		l-1,4H646h-4l0.5,3.5H638l-4.5,3.5l-4,4l-3.5,5l-5,3.3l-5.5,4.7l-6.6,5.5v2.7L605,191c0,0-3,5.5-3,7s-1,7-1,7l-0.5,5l-4,3h-6.2
		l-5.8-6c0,0-2-1.5-2.5-3s-3.5-13-3.5-13v-5.3v-6.2l-2-4l1.5-2.7l2-3.8l-2.5-5.5c-0.5-2.5,1-5,1-5s1-3.5,1-5s-3-3-3.5-5
		s-3.5-4-3.5-4L568,137l-2.5-3.5l-4-2.5l-9.5,2.5h-5h-4v-6l2.5-2.5h4l-2.5-3.5l-4-2.5l7-4.5l4.2-3.5L555.3,104.5z"/>
</g>
<g id="Argentina">
	<polyline class="st0" points="572.3,642 569.3,646 566,651 559.3,653 561.3,655 561.3,659.7 558.7,665.3 554.7,670 552,673.3 
		548.7,675.3 545,675 542.3,676.7 542.3,681.7 539,684.3 533.7,683.7 534.7,688 535,691 535.3,697 533,702.7 531,707.3 529.7,710.7 
		531.7,712 534.3,713 535.3,718 532.7,723 531,727.7 528.3,733.3 528.3,738.3 530.3,742.3 532.3,744.7 535.7,747.3 537.3,750.3 
		537.3,754 533.7,756 528,757.3 523.3,757.3 520,754 517.3,751 514.7,747 511,742.3 509.3,738.3 505.7,733.7 505.7,727.7 
		505.7,724.3 505.7,720.7 503.7,718.3 500,715 500.3,710.7 501.7,706 504,702.3 505.7,697 505.7,692 502,687.7 499,682.7 498,677.3 
		497.7,672.3 496.7,667.7 495,663.7 495.7,659 497.3,653.7 500,649.3 504,643.7 504,636.7 501.7,632.7 499.3,628.3 499,625 
		500,621.7 502,617 504,612.7 501,606 499.3,599.3 499.3,591.7 499.3,584.7 499.3,580 499.3,576 501.3,575.7 503.7,578.3 506,582 
		510.7,587.3 515.7,589 517.3,587 520,584 524.3,586.3 527.7,589.7 529.3,589.7 534.7,589.7 536.7,593.7 539.3,595.3 542.3,598 
		547.3,598 549,598 549.3,601.3 549.7,604 549.7,607.7 547.3,609.2 547.3,613 552,610.7 556.3,608.3 558.7,605.3 561.3,605.3 
		563.4,605.3 563,609.3 560.3,613 557.7,617.3 556.3,620 559.7,622 562,626.3 564.7,631.7 566.3,633.3 566.7,638.3 569,640 
		572.3,642 	"/>
</g>
<g id="Brazil">
	<polyline class="st0" points="571.7,466.6 571.3,466.3 571.3,470.7 568.3,474.3 563.7,478.3 557.7,482 551.3,484 546.7,484 
		541.7,482.3 537.7,479.7 537.7,475.2 535.3,471 530.3,475.2 526.3,475.2 524,475.2 524,477.7 524,482.3 519.3,484 517,486.7 
		513,486.7 510,483.3 505.3,483.7 502.7,486.7 502.7,491 504.3,494.7 502.7,499 500.3,503.3 495.3,503.3 491.3,506.3 488.3,511.7 
		485,514.7 483.3,520 487.3,523.7 490,526 491.7,530.7 495.3,529 498.3,527.7 501.3,530.7 499.7,533.3 497.7,536.7 501,539.3 
		505.7,539.3 510.7,536.3 516,534 519,536.3 523,539.3 524.7,542.3 531,545 536,547 539.7,551.3 543.3,557.3 546.7,562.7 550,569 
		550.7,574 550.7,582 555,586.3 558.7,589 560.7,595.3 562.3,602 562.9,604.8 562,600.5 562.3,602 563.3,607.3 561,611.3 559,614.7 
		557.3,618.3 558.3,620.7 561,623 562,627.7 565,630.7 567,634.7 567.3,638.7 569.7,640.7 572.3,642 574.7,636.7 577,631.7 
		579.3,625.3 582,618.7 584,613 584,608 584,602.7 586.3,599.3 588.7,596.3 591.7,593.7 595.7,591.7 600,591.3 604.7,589.3 
		607.3,584.7 610.7,580.7 612.3,574.7 614,568 617.3,561 617.3,553.7 617.3,548 620,542.3 626.7,534.7 630,528.7 633.3,523.3 
		633.3,515 633.3,510 631.3,508 625.3,502.7 620.3,500.7 616.3,498 608.3,497 603.3,497 598.7,493 596.3,491 592.3,490 586.7,489.3 
		583,485 578.7,476.7 574.3,470 571.7,466.6 571.3,466.3 571.3,467.9 	"/>
</g>
<g id="Peru">
	<polygon class="st0" points="563.7,603.3 563.4,605.3 561.3,605.3 558.7,605.3 556.3,608.3 552,610.7 547.3,613 547.3,609.2 
		549.7,607.7 549.7,604 549.3,601.3 549,598 547.3,598 542.3,598 539.3,595.3 536.7,593.7 534.7,589.7 529.3,589.7 527.7,589.7 
		524.3,586.3 520,584 517.3,587 515.7,589 510.7,587.3 506,582 503.7,578.3 501.3,575.7 499.3,576 496,571.7 491.7,565.3 486.7,562 
		481,557.7 475.7,552.7 471,546.7 467.7,537.7 465.3,531.7 461.7,526.7 458.3,523.3 454.3,520 454.3,514.3 456.3,507.7 456.3,501.7 
		456.3,496.3 459,489.3 462.3,482.7 467,478 467,475.7 469.7,472.7 471.7,469.3 469.7,461.7 471.3,457.3 474.3,453.7 476.7,451 
		479.7,447.1 481,445.3 483.7,442 486,440.3 489.3,438.7 492.3,435.3 498.7,433.3 501.3,433.3 506,435.7 511.3,440.3 516.3,443 
		522,443 533,443 537.3,445.3 540,449.7 543.8,453.3 549,458 555.3,461.7 560,463.7 568,461.7 571.7,466.6 571.3,467.9 571.3,470.7 
		568.3,474.3 563.7,478.3 557.7,482 551.3,484 546.7,484 541.7,482.3 537.7,479.7 537.7,475.2 535.3,471 530.3,475.2 526.3,475.2 
		524,475.2 524,477.7 524,482.3 519.3,484 517,486.7 513,486.7 510,483.3 505.3,483.7 502.7,486.7 502.7,491 504.3,494.7 502.7,499 
		500.3,503.3 495.3,503.3 491.3,506.3 488.3,511.7 485,514.7 483.3,520 487.3,523.7 490,526 491.7,530.7 495.3,529 498.3,527.7 
		501.3,530.7 499.7,533.3 497.7,536.7 501,539.3 505.7,539.3 510.7,536.3 516,534 519,536.3 523,539.3 524.7,542.3 531,545 536,547 
		539.7,551.3 543.3,557.3 546.7,562.7 550,569 550.7,574 550.7,582 555,586.3 558.7,589 560.7,595.3 562,600.5 	"/>
</g>
<g id="Quebec">
	<polygon class="st0" points="518,279.3 518,276.7 518,272 518,267.3 519.2,264.5 518,260.3 520.3,255 520.3,248.7 522.7,243 
		520.3,236.8 522.7,231 524.3,227.3 529.3,225.3 531.3,220.7 531.3,215.7 529.3,208.7 529.3,203.7 531.3,200 534.7,196.3 534.7,191 
		534.7,185.7 540.7,185.7 544.7,185.7 550.7,187.7 555.3,189.3 557.3,194 557.3,200.7 557.3,206.3 557.3,209.3 560.3,209.7 563,205 
		565.3,201 570,200.7 570,204 572,210 575.7,213.3 575.7,218 575.7,223.7 579.7,226 584.3,228.7 586.7,232.5 588.3,236.8 
		590.3,241.3 590.3,247.3 588,251.7 583,256 578,259.3 574.7,263.3 568.7,264.7 564.3,264.7 562.7,269 564.3,271.3 564.7,276.7 
		565.7,279.3 569.3,279.3 572.7,282.7 572.3,287.8 569.3,292.3 566.3,295.7 565.3,301.7 562.3,306.3 557.3,306.3 554.2,302.3 
		552.3,299 555.3,294.7 555.3,289.3 555.3,285 555.3,280.3 552.3,276.7 547.3,278.7 545.3,283 542.7,286.7 536.7,286.7 531.3,285.3 
		527,281.3 522.3,282.7 518,282.7 	"/>
</g>
<g id="NorthAfrica">
	<polyline class="st0" points="781,548.5 778,554.2 771.5,559 766.5,565 766.5,573 766.5,581 764.3,586.5 758,588.3 753.5,588.3 
		747,592.5 743.5,588 740.5,580.5 734,580.5 727,575.7 722.5,570 709.5,573 702,575.7 696,571 690,572.5 683,575.7 678.5,571.5 
		673,564.5 667.5,558 663.5,549.5 660,543.5 656,535 652.5,527.5 652.5,518 655.5,511.5 658,505.5 658,496.5 658,489.5 658,484.5 
		663.5,479 663.5,474 666.5,466.3 671,461.7 671,454 674,448 677.5,442.5 677.5,436.5 685,436.5 690.5,436.5 696.5,433.3 700,428.5 
		704.5,425.5 710.5,428.5 713.5,423 721,423 726.5,423 731,425.5 737,429 743,429 748.5,425.5 753,425.5 756,428.5 756,433.3 
		756.5,438 755.3,441.9 751,446.5 747.5,452 744,458.5 744,466.3 744,471.5 747.5,480.5 751,486.5 751,491.5 757.5,496 762.5,496 
		766.5,501 772.5,501 777,507 781.5,511 784.5,516.5 784.5,523.2 784.5,534.5 784.5,542 781,548.5 	"/>
</g>
<g id="GreatBritain">
	<polygon class="st0" points="665.5,229.5 669,233.5 669,237 671.5,242 674.5,242 678,242 678,247.5 678,253 674.5,256 671.8,260 
		671.8,264 675,268 678,271 680.5,277 683,283 685.5,286 691,289.5 695,289.5 695,295.5 695,300 695,303.5 695,307.5 695,311 
		692.5,314.5 689.5,314.5 686.5,317.5 680.3,317.5 675,317.5 669.5,317.5 665.5,319.5 665.5,323 659.5,323 653,326.5 649,326.5 
		649,321.5 653.5,319 657,316 660,312.5 657,310.5 654,307 654,304.5 657,302 657,297 653.5,292.5 649,298.5 649,301.5 649,306 
		649,311.5 649,314.5 649,317 644.5,321 639.5,322 632,323 626.5,321 621,317.5 621,311 621,306 626,302.5 629,300.5 630.5,296 
		629.5,289 629.5,282.5 633,278 637,275 642,270.5 646,269.5 652,271.5 657,272 657,268.5 651.5,266.5 651,262 650.5,257 
		649.5,250.5 650,244 653,237.5 657,233 662,229.5 	"/>
</g>
<g id="IceLand">
	<polygon class="st0" points="659.5,185.7 662.5,182 666.5,182 670.5,183.8 670.5,189 673,185.7 676.5,185.7 683,185.5 686,182 
		689,179.5 694.5,179.5 699,179.5 701,184.3 705.5,189 708.5,194.5 708.5,200.5 708.5,206.5 704,213 700,213 697,217 690,219.5 
		684,222.5 678,222.5 672,222.5 669,222.5 662.5,222.5 659.5,218 662.5,213 662.5,208.5 659.5,207 657,204.5 657,201 657,198 
		657,194 657,191 	"/>
</g>
<g id="EastAfrica">
	<polyline class="st0" points="836.5,642 841,642 840.5,636 840,628.5 836.5,624 840,618.5 844,610.5 853,604 856,600 864,594 
		867,586.5 870,580 873.5,573 873.5,569 878,563.5 878,558 880.5,554.2 880.5,549 875.5,546 870.5,547 864,550 858,550.5 852.5,549 
		853,543.5 851,537.5 846.5,533.5 841,530 840.5,527.5 840.5,520.5 836.5,518.5 836.5,513 836.5,507 832.5,502 829,497.5 824,489.5 
		819.5,482 817.5,477.5 817,472 820,470 819.5,466.3 817.5,461.7 815,459 813.5,456 809,455.5 805.5,457.5 797,457.5 790.5,453 
		786,449 780.5,447 776.5,451.5 777.5,459.5 771,456.5 766.5,452.5 760.5,449 754.5,444.5 751,446.5 747.5,452 744,458.5 744,466.3 
		744,471.5 747.5,480.5 751,486.5 751,491.5 757.5,496 762.5,496 766.5,501 772.5,501 777,507 781.5,511 784.5,516.5 784.5,523.2 
		784.5,534.5 784.5,542 781,548.5 785.9,551.5 788,556 792,563.5 796,570.5 802,578 807,578 819,580.5 823,584.5 823,589.5 
		817.5,595 812.3,604.5 809,612.5 807,620.5 807,628 809,630.7 812.3,635 814.5,642 817,651 817.5,661 823,667 823,659.5 823,653 
		828,646.5 833.5,646 836.5,642 	"/>
</g>
<g id="Congo">
	<polygon class="st0" points="749.5,617.5 753.5,617.5 759,620.5 764,622 767.5,625 767.5,630 774,628 781,628 781,634.5 781,640 
		785.9,644 791.5,647.5 797.5,647.5 801,647.5 804.5,650 807,642 804.5,638 804.5,633.8 804.5,631.5 807,631.5 807,628 807,620.5 
		809,612.5 812.3,604.5 817.5,595 823,589.5 823,584.5 819,580.5 807,578 802,578 796,570.5 792,563.5 788,556 785.9,551.5 
		781,548.5 778,554.2 771.5,559 766.5,565 766.5,573 766.5,581 764.3,586.5 758,588.3 753.5,588.3 747,592.5 743.5,592.5 740,601.5 
		743.5,607.5 747,613 749.5,620.5 	"/>
</g>
<g id="SouthAfrica">
	<polygon class="st0" points="809,630.7 812.3,635 814.5,642 817,651 817.5,661 823,667 823,659.5 823,653 828,646.5 833.5,646 
		836.5,642 841,642 844,646 844,656 844,666.5 840.5,672.5 836.5,679 831,679 827.5,683 822.5,686.5 820,690 822.5,698 822.5,706 
		819.5,711.5 815.5,717.5 812,725 808.5,732 807.5,739 798.5,743 791.5,750.5 785.5,753.5 777,753.5 771,753.5 765.5,750.5 
		765.5,743 765.5,737 762.5,728.5 760,722.5 756.5,714.5 756.5,707.5 756.5,696.5 754,689 752,682.5 748,677.5 746.5,670.5 
		750,662.5 751.5,658.5 752.5,655 756.5,650 753,644.5 753,642 753,634.5 749.5,630.5 749.5,620.5 749.5,617.5 753.5,617.5 
		759,620.5 764,622 767.5,625 767.5,630 774,628 781,628 781,634.5 781,640 785.9,644 791.5,647.5 797.5,647.5 801,647.5 804.5,650 
		807,642 804.5,638 804.5,633.8 804.5,631.5 807,631.5 	"/>
</g>
<g id="WesternEurope">
	<polygon class="st0" points="715,375 715,369.5 715,364 709.8,361 715,355.5 715,347.5 715,342 712.5,334 708.5,328.5 708.5,323.5 
		704.5,319.5 699.5,316.5 697,319 694,319 694,324.5 690,328 683,328 680.5,332 677,336.5 669,336.5 664,339 664,343.5 664,350 
		667,350 669.5,353 671.5,357 673.5,361.5 673.5,369 671,372.5 664,374.5 660,374.5 654.5,371 649,374.5 646.5,380.5 646.5,386 
		650.5,390 652.5,393 654.5,398 653,403 650,411.5 649,417 649,422 651,425.5 654,428.5 662,432 666,432 669,432 673,432 675.5,434 
		680.5,434 683,434 687,434 690.5,431 695,429.5 697.5,427.5 698.5,424 701.5,420 704.5,414.5 704.5,410.5 707,406 707,402.5 
		707,400 704.5,396.5 707,394.5 707,390 707,386.5 704.5,381 705.7,379.2 707,377 710,381.5 714.5,384 714.5,380.5 718,378 	"/>
</g>
<g id="EasternEurope">
	<polyline class="st0" points="772.5,263 770,261 763,261 757,261 751,261 746.5,264.5 740,264.5 739,256 740,252 736.5,247.5 
		733.3,245.5 727.5,247.5 725.5,252.5 727,258 729,262 728,270 725.5,275 720.5,280 714.5,286.5 714.5,293.5 708.5,297.5 708.5,302 
		708.5,308 707,310.3 704.5,319.5 708.5,323.5 708.5,328.5 712.5,334 715,342 715,347.5 715,355.5 709.8,361 715,364 715,369.5 
		715,375 721,377.5 721,384 725.5,388 728.5,393 731,398 731,403.5 731,406.5 726.5,409 723.5,409 719,410 720,414.5 723,417 
		728.5,420 731,417 736.5,417 740,411 744,406.5 744,400.5 744,396.5 748.5,399.5 752,401 752,397.5 752,394 748.5,389.5 747,386.5 
		744,384 744,380 744,375.3 752,378.5 755,384 755,390.5 755,395.5 759.5,402 759.5,408 762,411.5 762,417 762,420.5 765.5,424 
		771,425 776.5,423.5 779,420.5 779,417 775.5,414.5 779,411.5 779,409 772.5,404 771.5,400 775.5,399.5 775.5,395.5 779,400 
		779,397.5 779,394.5 779,391.5 779,387.5 782.3,381 782.3,375.3 786.5,372.5 792,369.5 792,363 792,357.5 788,352 786,347.3 
		785.5,337.5 785.5,330.5 782.5,324.5 780.3,319.5 772.5,319.5 772.5,314 777.5,310 780.3,307.5 783.5,302 788,294 784.5,287.5 
		782,279 782,272 779,266 772.5,263 	"/>
</g>
<g id="MiddleEast">
	<polyline class="st0" points="819.5,466.3 821,469 821,472.5 823.5,472.5 827,476 830,480.5 834,487 836.5,492.5 840,500 
		844,504.5 848.5,511 851,519 851,526.5 856,529.5 863,532 871.5,532 876.5,525.5 883,521.5 888.5,519.5 892.5,515 895.5,510.5 
		901,502.8 905,492.5 908,480.5 908,470 901.5,467.5 899,463.5 896.5,463.5 892.5,460.5 885.5,463.5 882.5,460.5 880.5,456 
		876.5,453.5 872,448.5 871,444.5 870,439.5 871.5,434.5 874.5,434.5 878.1,431.8 880.5,430 880.5,438 880.5,442 882.5,444.5 
		884,449 885.5,452 889,454.5 893,454.5 897,454 899.5,457.5 903.5,457 908,454 912,448 916,444.5 913.5,436 911,430.5 911,425 
		908.5,417 906,414.5 906,411 903.5,406 903.5,400 903.5,394 899,384 896,378.3 891.5,375 885.6,373.3 883,372.5 880.5,378.3 
		880.5,384 877.5,384 874.5,384 866.5,381 866.5,376.8 861,372.5 858,376.8 852.5,376.8 848,381 843,381 836.5,381 833.5,381 
		829,381 825,381 823,376.8 819.5,372.5 813.5,372.5 809.5,372.5 806,378 802.5,378 798.5,381 795,381 792,377 789.5,375 
		786.5,372.5 782.3,375.3 782.3,381 779,387.5 779,391.5 779,394.5 779,397.5 779,400 775.5,399.5 779,399.5 781.5,401.5 
		781.5,406.5 781.5,409.5 784.5,413 787.5,417 791.5,417 796,417 801,417 803.5,417 806,421 809,421.5 812.3,421.5 814.5,419.5 
		814.5,417 817,413 820,417 820,422 820,424.5 820,429.5 820,434 820,438 818,444.5 814.5,448 812.3,451.5 813.5,456 817.5,461.7 
		819.5,466.3 819.5,466.3 817.5,461.7 815,459 813.5,456 809,455.5 	"/>
</g>
<g id="India">
	<polyline class="st0" points="908,384 913.5,382 913.5,377.5 916,377.5 921.9,375.5 921.9,367.5 925.5,367.5 931,372.5 934,376.5 
		937,372.5 940,370 944.5,367.5 949.5,363.5 949.5,367.5 953.5,367.5 957.5,370.5 957.5,375 957.5,381 957.5,387 957.5,392 
		957.5,397.5 961.5,397.5 965,402 968,405 972.5,405 977,405 982,408 985.5,411 987.5,415 993,412.5 995.5,412.5 1003,415 
		1006.5,419 1010.5,417 1006.5,425 1003.5,430.5 1001,436 998,441.5 995.5,447 993,451 993,455 990,461 985,461 982.5,470 
		979,477.5 975.5,481 975.5,485.8 975.5,499 971.5,506.5 971.5,513 971.5,519.5 969,525 969,534.5 964.5,541.5 960.5,541.5 
		956.5,537.5 956.5,532 953,525.5 953,519.5 949.5,515.5 949.5,510.5 949.5,507 944.5,504 944.5,500.5 944.5,495.5 941.5,492 
		941.5,487.5 941.5,481 941.5,476 941.5,470 941.5,467.5 941.5,461 936.5,464.5 936.5,467 930.5,464.5 930.5,459.5 930.5,456 
		927.5,454 927.5,451 924.5,444.5 921.9,443.2 913.5,436 911,430.5 911,425 908.5,417 906,414.5 906,411 903.5,406 903.5,400 
		903.5,394 903.5,388.5 907,387 908,384 	"/>
</g>
<g id="Afghanistan">
	<polyline class="st0" points="940,370 944.5,367.5 940,357 937.5,353.5 937.5,351 937.5,347.5 937.5,342.3 940,342.3 944.5,336 
		947.5,332 950.5,323 950.5,317.5 950.5,310.5 953.5,304.5 953.5,298.5 957.5,294 961,291.5 961,287 964.5,283.5 964.5,278.5 
		962.8,274.5 961,268.5 956,263.5 956,259.5 952,259.5 952,253.5 949.3,251 944.5,251 944.5,247.5 944.5,242.5 946.5,239 
		949.3,235.5 949.3,229.5 949.3,224.5 949.3,222 944.5,218 949.3,213.5 949.3,208.5 944.5,204 942.3,201.5 940,195.5 937.5,192.5 
		934,186.5 934,181 934,176 930,176 930,172 930,168.5 928,166 922.5,159.5 923,154 918,151 916,154.5 916,160.5 914,166.5 
		908.5,168.5 908.5,165 908.5,161 912,157 913.5,150 908.5,140.5 908.5,132.5 908.5,127.5 908.5,123 902.5,120 896.5,115.5 
		893.5,120 893.5,126 891,129 891,134.5 891,142 895,144.5 898.5,148.5 896.5,152.5 899,155 899,159 899,166 899,172.5 892.5,176 
		891.5,181.5 891.5,186.5 891.5,191.5 893,197.5 893.5,203.5 893.5,208 893.5,213 895,218 896.5,225 892.5,228 892,232.5 895,235 
		899,240 899,245.5 895.5,245.5 899,252.5 899,256 899,260 899,265.5 892.5,265.5 890,270 885.5,273 883,270 878,270 874.5,270 
		874.5,274.5 871,274.5 866.5,274.5 862.5,277.5 858,277.5 855,281.5 853.5,286.5 850.5,289.5 850.5,294 850.5,298 853.5,305 
		858,312.5 860,318.5 858,323 866,314.5 871,314.5 874.8,320.5 872,323 869.1,326.5 869.1,331.5 869.1,339 874.8,342 874.8,347 
		874.8,353.5 877.5,357.5 877.5,362 877.5,367.5 881,370 885.6,373.3 891.5,375 896,378.3 899,384 908,384 913.5,382 913.5,377.5 
		916,377.5 921.9,375.5 921.9,367.5 925.5,367.5 931,372.5 934,376.5 937,372.5 940,370 	"/>
</g>
<g id="Ukraine">
	<polygon class="st0" points="863,368.5 863,366 863,363.5 863,358 866.5,354.5 863,352 860.5,346 858,342.5 858,335.3 853.5,331 
		853.5,325.5 858,323 860,318.5 858,312.5 853.5,305 850.5,298 850.5,294 850.5,289.5 853.5,286.5 855,281.5 858,277.5 862.5,277.5 
		866.5,274.5 871,274.5 874.5,274.5 874.5,270 878,270 883,270 885.5,273 890,270 892.5,265.5 899,265.5 899,260 899,256 899,252.5 
		895.5,245.5 899,245.5 899,240 895,235 892,232.5 892.5,228 896.5,225 895,218 893.5,213 893.5,208 893.5,203.5 893,197.5 
		891.5,191.5 891.5,186.5 891.5,181.5 892.5,176 899,172.5 899,166 899,159 899,155 891,149 887.5,146.5 883,145.5 874.5,146.5 
		872,150 864.5,150 858,149.5 853.5,155.5 853.5,161.5 849,161.5 842.5,161 842.5,156 836.5,152 833,153 833,157.5 833,161 
		833,166.5 833,171.5 830,173.5 826.5,178.5 823,183 820,179 815.5,178.5 815.5,183 811.5,183 811.5,177 803.5,173.5 812.5,173.5 
		820,170.5 823,168 827.5,163.5 827,156.5 823,152.5 815.5,152.5 808.5,150 798,149 790,147.5 784.5,144.5 776.5,143.5 767.5,142.5 
		764.5,146 760,153.5 755.5,156 751,152.5 746.5,156 746.5,161 746.5,166.5 743,167 740,173.5 740,176.5 735.5,183 733.3,189 
		726,189 723,195 716.5,201 716.5,206.5 716.5,212 714.5,222.5 718,230 720,238 724,240.5 729.5,240.5 733.3,237 738.5,240.5 
		739.5,245 741,247.7 744,253 749,256.5 753.5,252.5 756.5,245.5 756.5,239.5 759,232 762.5,225 763.5,217 763,211.5 765,201 
		768.5,196 771,201 769.5,208 768,217.5 771,222.5 778,222.5 783.5,219 786.5,222.5 780,225.5 773,225.5 773.5,231.5 777.5,234.5 
		781,237.5 781,242 775.5,239.5 770.5,237.5 770,240.5 768.5,246.5 768.5,251 769.5,256.5 772.5,263 779,266 782,272 782,279 
		784.5,287.5 788,294 783.5,302 780.3,307.5 777.5,310 772.5,314 772.5,319.5 780.3,319.5 782.5,324.5 785.5,330.5 785.5,337.5 
		786,347.3 788,352 795.5,352 795.5,349 798.5,345 801,348.5 804,352 810,357.5 814.5,357.5 818,351.3 815,345 818,342.5 824,342.5 
		824,346 821,350 824,355.5 826.5,360.5 830.5,365 836.5,368 836.5,371.5 841,376.8 843,381 848,381 852.5,376.8 858,376.8 	"/>
</g>
<g id="Siam">
	<polygon class="st0" points="1011.5,422 1013.5,419 1016,424.5 1019,429 1022,433.5 1027,438.5 1031,438.5 1033.5,435.5 
		1033.5,431 1037.5,428.8 1040,428.8 1043.5,428.8 1043.5,433 1047,438.5 1045.5,444.5 1044.5,454 1048.5,459.5 1051,464 
		1055.5,472.5 1058.5,479.5 1058.5,488 1058.5,495 1058.5,502 1054.5,508 1051,515 1048.5,514 1044.5,506.5 1044.5,500 
		1039.5,496.5 1034,490.5 1034,499 1037,501 1036.5,506 1040,515 1042,519.5 1044.5,523 1042,529 1037,529 1033.5,525.5 1030,520 
		1027,515 1023.5,510 1023.5,503.5 1023.5,496 1023.5,489.5 1020,483 1016,481 1010.5,480 1007,478 1002.5,470 999,467 999,462.5 
		995.5,456.5 995.5,450.5 995.5,447 998,441.5 1001,436 1003.5,430.5 1006.5,425 1010.5,417 	"/>
</g>
<g id="China">
	<polygon class="st0" points="965.5,287 968,290.5 971.5,290.5 975.5,290.5 979.5,290.5 979.5,296 979.5,299.5 982,303 987.5,305.5 
		991.5,309.5 991.5,314 991.5,320 994.5,320 994.5,325 998.5,327.5 1002,332.5 1006,336.5 1011.8,340 1018.5,340 1025,343 
		1030.5,343 1035,345.5 1039,345.5 1044.5,345.5 1048,348 1055,348 1062,348 1068,348 1070.5,351.5 1073.5,353 1078,358.5 
		1082.5,366 1083.5,370.5 1083.5,373.5 1083,378 1083,384 1086,390 1083.5,393.3 1083.5,397.5 1083.5,401.5 1081,408 1081,417 
		1078.5,421.5 1072.5,424.5 1068.5,430 1066,434 1062,437.5 1062,441.5 1058.5,447 1047,438.5 1043.5,433 1043.5,428.8 1040,428.8 
		1037.5,428.8 1033.5,431 1033.5,435.5 1031,438.5 1027,438.5 1022,433.5 1019,429 1016,424.5 1013.5,419 1011.5,422 1006.5,419 
		1003,415 995.5,412.5 993,412.5 987.5,415 985.5,411 982,408 977,405 972.5,405 968,405 965,402 961.5,397.5 957.5,397.5 
		957.5,392 957.5,387 957.5,381 957.5,375 957.5,370.5 953.5,367.5 949.5,367.5 949.5,363.5 940,357 937.5,353.5 937.5,351 
		937.5,347.5 937.5,342.3 940,342.3 944.5,336 947.5,332 950.5,323 950.5,317.5 950.5,310.5 953.5,304.5 953.5,298.5 957.5,294 
		961,291.5 961,287 	"/>
</g>
<g id="Siberia">
	<polyline class="st0" points="982,303 987.5,305.5 989.7,300.3 991.5,295 990.6,290.5 989.7,286 987.5,280 989.5,276.3 
		987.5,271.7 982,268.7 982,265 982,260 984.8,255.7 984.8,252 982,247 982,244.3 982,241.7 984.8,241.7 986.8,241.7 987.5,237 
		989.3,234 991.5,231.3 993,228.3 996,224.7 999.3,226.5 1001,229.7 1001,232 1003.3,234.7 1007,237 1008.3,234 1008.3,229.3 
		1008.3,226.5 1009.7,223.3 1009.7,219.7 1009.7,216.3 1008,214 1009.7,210.3 1009.7,206.3 1009.7,203 1011.8,194.3 1010,191.7 
		1010,188 1010.3,183 1007.3,180.3 1007,175.3 1005,170.7 1004.7,166 1007,163.5 1006,161.5 1005,159.5 1001.3,158 996.9,156.7 
		996.9,154.3 1000.7,152.5 1002,150.8 1003.3,149 1006.3,145 1009,147 1013,147 1015,145 1015,138.7 1015,133.3 1015,129.3 
		1016.3,125.3 1019.3,122.8 1019.3,119 1015.7,117.3 1013,115.3 1013,113.3 1013,106.5 1010.5,109 1005.5,104 999,104 994.5,105.5 
		991,106.5 986.5,110 980.9,114.5 980.9,109 984.5,104.5 989.5,100.5 991,97 991,89.5 985.5,89.5 980.9,85.5 978.5,82 973,82 
		967.5,86 959.5,82 956,86 956,89 948,89 943,90.5 938,96.5 935,102 935,107.5 929.5,104 925.5,107 925.5,110.5 925.5,114.5 
		930.5,117.5 930,120.5 925.5,119 921,112.5 921,116 918.5,121.5 918.5,125 924,128 925,132.5 921,132.5 914,123 911.5,128.5 
		911.5,132.5 911.5,140 911.5,142.5 920,146 924.5,150 926.5,156 928,163.5 928,166 930,168.5 930,172 930,176 934,176 934,181 
		934,186.5 937.5,192.5 940,195.5 942.3,201.5 944.5,204 949.3,208.5 949.3,213.5 944.5,218 949.3,222 949.3,224.5 949.3,229.5 
		949.3,235.5 946.5,239 944.5,242.5 944.5,247.5 944.5,251 949.3,251 952,253.5 952,259.5 956,259.5 956,263.5 961,268.5 
		962.8,274.5 964.5,278.5 964.5,283.5 961,287 965.5,287 968,290.5 971.5,290.5 975.5,290.5 979.5,290.5 979.5,296 979.5,299.5 
		982,303 	"/>
</g>
<g id="Mongolia">
	<polygon class="st0" points="1075.5,349 1078.5,344.5 1076.5,340 1074,337.5 1069.5,337.5 1065,334.5 1066,329.5 1071,323 
		1072,333.5 1076.5,333 1078,330.5 1080.5,331.5 1080.5,335 1080.5,338 1083.5,338 1086,338 1086,342 1086,348 1089,351 1093,349.5 
		1093,345.5 1096.5,341.5 1096.5,336 1096.5,333 1096.5,328 1090,323 1084.5,316.5 1085,310.5 1087,306.5 1090,300 1086.7,297 
		1084.7,294.3 1082.3,290.3 1081,288.3 1078.3,286.3 1074.7,284.7 1075.3,280 1078.3,276.3 1073.3,271.7 1070.5,269.3 1066.6,266.7 
		1065,263.3 1062.7,258.7 1061,255.7 1059.3,251.3 1056.3,246.7 1053.7,250.3 1051.3,250.3 1045.8,250.3 1043,252 1043,256 
		1043,259.7 1043,263.3 1043,268.3 1041,274 1037,274 1031,274.5 1027.3,277.3 1023.3,277.3 1019.3,277.3 1014.8,277.3 
		1010.7,276.3 1006.7,274.5 1004.3,277.3 1000.3,277.3 1000.3,274 995.8,274 993.1,272.5 989.5,276.3 987.5,280 989.7,286 
		990.6,290.5 991.5,295 989.7,300.3 991.5,309.5 991.5,314 991.5,320 994.5,320 994.5,325 998.5,327.5 1002,332.5 1006,336.5 
		1011.8,340 1018.5,340 1025,343 1030.5,343 1035,345.5 1039,345.5 1044.5,345.5 1048,348 1055,348 1062,348 1068,348 1070.5,351.5 
			"/>
</g>
<g id="Irkutsk">
	<polygon class="st0" points="1017.7,198.7 1019.3,198.7 1020.7,194.3 1022.3,192 1022.3,188 1024,185 1026.7,188 1029.7,186.3 
		1032.7,184.7 1037.7,184.7 1043,184.7 1045.8,185.1 1045.8,189.3 1045.8,193.8 1045.8,198.7 1045.8,203 1045.8,207.3 1045.8,212.7 
		1048.6,217.3 1050,220.7 1054,225 1057.7,228.7 1057.7,233.7 1057.7,237.3 1060.7,237.3 1065,235.3 1068,233.7 1073,237.3 
		1075.8,241.7 1078.3,245.3 1078.3,250.3 1078.3,254 1075.8,258.3 1075.8,262 1075.8,267 1077,271.7 1077.7,274 1073.3,271.7 
		1070.5,269.3 1066.6,266.7 1065,263.3 1062.7,258.7 1061,255.7 1059.3,251.3 1056.3,246.7 1053.7,250.3 1051.3,250.3 1045.8,250.3 
		1043,252 1043,256 1043,259.7 1043,263.3 1043,268.3 1041,274 1037,274 1031,274.5 1027.3,277.3 1023.3,277.3 1019.3,277.3 
		1014.8,277.3 1010.7,276.3 1006.7,274.5 1004.3,277.3 1000.3,277.3 1000.3,274 995.8,274 993.1,272.5 987.5,271.7 982,268.7 
		982,265 982,260 984.8,255.7 984.8,252 982,247 982,244.3 982,241.7 984.8,241.7 986.8,241.7 987.5,237 989.3,234 991.5,231.3 
		993,228.3 996,224.7 999.3,226.5 1001,229.7 1001,232 1003.3,234.7 1007,237 1008.3,234 1008.3,229.3 1008.3,226.5 1009.7,223.3 
		1009.7,219.7 1009.7,216.3 1008,214 1009.7,210.3 1009.7,206.3 1009.7,203 	"/>
</g>
<g id="Yakutsk">
	<polygon class="st0" points="1017.7,198.7 1019.3,198.7 1020.7,194.3 1022.3,192 1022.3,188 1024,185 1026.7,188 1029.7,186.3 
		1032.7,184.7 1037.7,184.7 1043,184.7 1048.6,178.3 1051.3,173.5 1053,170.3 1053,166.3 1054.7,166.3 1057.3,161.5 1060,159.5 
		1063.3,158 1065,159.5 1066.3,163.5 1068.7,166.3 1070.3,163.5 1074.7,166.3 1077,166.3 1079,163.5 1079,159.5 1079,153.8 
		1079,150.8 1076,148 1073.3,145.7 1073.3,142 1073.3,137.7 1073.3,133.7 1076,131.3 1078.3,128 1080.3,126 1082.3,123.3 
		1084.7,121 1082.3,113 1078.5,113 1078.5,108.5 1071.5,103.5 1068.5,106.5 1064,103.5 1058.5,103.5 1052,103.5 1052,109 
		1049.5,113 1046,110 1039.5,111.5 1039.5,117.5 1034.5,113 1034.5,109.5 1030.5,106 1030.5,100.5 1022,100.5 1018,100.5 
		1014.8,104.4 1013,113.3 1013,115.3 1015.7,117.3 1019.3,119 1019.3,122.8 1016.3,125.3 1015,129.3 1015,133.3 1015,138.7 
		1015,145 1013,147 1009,147 1006.3,145 1003.3,149 1002,150.8 1000.7,152.5 996.9,154.3 996.9,156.7 1001.3,158 1005,159.5 
		1006,161.5 1007,163.5 1004.7,166 1005,170.7 1007,175.3 1007.3,180.3 1010.3,183 1010,188 1010,191.7 1011.8,194.3 	"/>
</g>
<g id="Kamchatka">
	<path class="st0" d="M1141,183l5-4l3-5.5l2.5-4.5l3.5-4.5V161v-5.5l-4-2.5v-5.5l4,4l4,2v3.5l4,1.5h9l3-4V149v-7l-5-3l-9-4.5l-9-5
		l-3-2.5l-5.5-6l-8-4.5h-6.5h-7.5l-2.5,4l-8-4h-9h-6.5l-4-3.5h-6.5h-2.7l2.3,8l-2.3,2.3l-2,2.7l-2,2l-2.3,3.3l-2.7,2.3v4v4.3v3.7
		l2.7,2.3l3,2.8v3.1v5.7v4l-2,2.8h-2.3l-4.3-2.8l-1.7,2.8l-2.3-2.8l-1.3-4l-1.7-1.5l-3.3,1.5l-2.7,2l-2.7,4.8h-1.7v4l-1.7,3.2
		l-2.8,4.8l-2.8,6.8v4.2v4.4v4.9v4.3v4.3v5.3l2.8,4.7l1.4,3.3l4,4.3l3.7,3.7v5v3.7h3l4.3-2l3-1.7l5,3.7l2.8,4.3l2.5,3.7v5v3.7
		l-2.5,4.3v3.7v5l1.2,4.7l0.7,2.3l0.7,2.3l-3,3.7l-0.7,4.7l3.7,1.7l2.7,2l1.3,2l2.3,4l2,2.7l3.3,3l6.5-6.5v-5l2.5-12V267v-8v-8.5
		l-4-8l-1-7l0.5-7l-4.5-6l-3.5-4l-9,4l0.5-4l-5-4l1.5-5l4-5.5l1.5-3l2-4h6.5h7l3.5-3.5h3l2.5,3.5h6l2-3.5v-3l-2.5-2.5l-1-5.5v-3
		l3.5,2v3l4.5,4.5v-3l3-1.5v-5v-6h4v3v8l-2.5,4c0,0-4,6-4,7.5s-1,8.5-1,8.5s0,4.5,0,6s0,7,0,7l2.5,5l1,6.5l4,5v5l4,4l5-3.5v-7
		c0,0-0.5-4.5,0-6s0-6.5,0-6.5l0.2-6.5c0,0,0.2-4,0-5.5c-0.2-1.5,1.4-3.5,0.1-5c-1.3-1.5-2.8-5.5-2.8-5.5s-1,1-1-2.5s-1.5-0.5,0-3.5
		s9.3-6.5,9.3-6.5L1141,183z"/>
</g>
<g id="Madagascar">
	<path class="st1" d="M860.3,677.7l2.7-4.7l2.7-2.3l4.7,1.7l1.7-1.7h1.7V666l2.7-2.7l2.3-4.3v-3h4v-2.3l2.7-3V647l3.3-1.7l1.7,3
		l1.7,3.7l1.3,3.3v3.3l3,4.7v4.7l-1.7,5.7l-1.3,4l-3.3,3.7l-1.7,3l1,6c0,0,0.3,2,0,3.3c-0.3,1.3-2.3,5.7-2.3,5.7s-1.3,3.3-2,4.3
		s-2.7,5-2.7,5s-1,2-2,4.3s-2,4.3-2,4.3l-2.3,4.3l-1.3,1.7c0,0-0.3-2.7-2,0c-1.7,2.7-0.3,7.3-0.3,7.3L871,734c0,0,1-0.7-2.3,1.7
		c-3.3,2.3-5.3,0-5.3,0l-3,1H858l-3.3,3L853,736c0,0-1.3-2.7-2-3.7s-2.7-3.7-2.7-3.7s1.3-5,2-6.3c0.7-1.3-2-4.7-2-4.7v-5
		c0,0-1.3-2,0-3c1.3-1,5.3-5.3,5.3-5.3s0-0.7,0.7-2c0.7-1.3,2.3-4,2.3-4s0-1.7,0-2.7s-0.7-3.2-0.7-3.2v-4.2v-1.7l1-4l0.7-3.3
		L860.3,677.7z"/>
</g>
<g id="Japan">
	<polygon class="st1" points="1118,251 1123,246 1131,248.5 1137,251 1148,248.5 1148,254 1148,264 1142,269 1133,273 1138,283 
		1148,294 1148,305 1148,318 1142,327 1133,334 1133,339 1133,346 1122,346 1118,353 1109,359 1109,369 1104,369 1104,362 1091,357 
		1101,349 1107,340 1112,336 1113,331 1114,321 1119.5,316 1124,307.5 1127,301 1119.5,291 1127,282 1124,274 1124,261 	"/>
</g>
<g id="Australia">
	<path class="st1" d="M1094,625l-7-8l-6,4v10l-8,9l-6-6v17l-8,6l-11,8l-11,8v12v12l5,11l1,9l3,10l2,9l3,9h5h14l2-9h6l7-3l9-7v-5
		l14-5l7,6l7,7v7h8l8,9l6,7h5h6h5h8l7-9c0,0-4-3,0-6s9-11,9-11v-5l7-6v-11v-12l4-7.5l-6-8.5l-6-9l-2-6l-3-8l-5-6l-5-6l-5-8
		c0,0-2-8-3-11s-3-12-3-12l-4-9h-5l-4,12l-2,6l-1,5l-3,16l-5-9h-5l-5-4l2-8l-4-10l-5-2l-9,2l-10,3L1094,625z"/>
</g>
<g id="NewGuinea">
	<polygon class="st1" points="1084,536 1084,527 1092,520 1099,528 1099,536 1105,536 1105,528 1113,528 1125,528 1133,536 
		1139,546 1146,553 1146,563 1153,571 1153,583 1153,596 1146,591 1140,581 1134,579 1124,584 1118.5,584 1102,579 1104,571 
		1105,563 1105,558 1098,553 1084,548 	"/>
</g>
</svg>
